<svg width="119" height="119" viewBox="0 0 119 119" fill="none" xmlns="http://www.w3.org/2000/svg">
<g clip-path="url(#clip0)">
<path d="M38.1408 105.706C38.1408 102.621 35.6313 100.112 32.5471 100.112C29.4628 100.112 26.9536 102.621 26.9536 105.706C26.9536 108.79 29.4628 111.299 32.5471 111.299C35.6313 111.299 38.1408 108.79 38.1408 105.706ZM30.4397 105.706C30.4397 104.544 31.385 103.598 32.5468 103.598C33.709 103.598 34.6542 104.544 34.6542 105.706C34.6542 106.867 33.709 107.813 32.5468 107.813C31.385 107.813 30.4397 106.867 30.4397 105.706Z" fill="white"/>
<path d="M50.0565 26.9533H40.2485C39.2856 26.9533 38.5053 27.7337 38.5053 28.6964C38.5053 29.6591 39.2856 30.4396 40.2485 30.4396H50.0565V42.3552H44.0988C43.1359 42.3552 42.3556 43.1356 42.3556 44.0983C42.3556 45.061 43.1359 45.8415 44.0988 45.8415H50.0565V47.9486C50.0565 47.9547 50.0567 47.9605 50.0567 47.9665V57.7568H40.2485C39.2856 57.7568 38.5053 58.5373 38.5053 59.5C38.5053 60.4627 39.2856 61.2432 40.2485 61.2432H50.0567V73.1587H44.0988C43.1359 73.1587 42.3556 73.9392 42.3556 74.9019C42.3556 75.8646 43.1359 76.6451 44.0988 76.6451H50.0567V88.5606H40.2485C39.2856 88.5606 38.5053 89.3411 38.5053 90.3038C38.5053 91.2665 39.2856 92.047 40.2485 92.047H50.0567V103.962H44.0988C43.1359 103.962 42.3556 104.743 42.3556 105.705C42.3556 106.668 43.1359 107.449 44.0988 107.449H50.0567V113.406C50.0567 114.568 49.1114 115.514 47.9493 115.514H24.8461C23.684 115.514 22.7388 114.568 22.7388 113.406V86.0891C22.7388 85.1264 21.9585 84.3459 20.9956 84.3459C20.0327 84.3459 19.2524 85.1264 19.2524 86.0891V113.406C19.2524 116.491 21.7619 119 24.8461 119H47.9489C51.0331 119 53.5426 116.491 53.5426 113.406V72.7945H74.9019C88.602 72.7945 99.7478 61.6487 99.7478 47.9486V24.8459C99.748 11.1458 88.6022 0 74.9021 0H44.0983C30.3982 0 19.2524 11.1458 19.2524 24.8459V79.1164C19.2524 80.0791 20.0327 80.8596 20.9956 80.8596C21.9585 80.8596 22.7388 80.0791 22.7388 79.1164V24.8459C22.7388 13.0682 32.3208 3.48633 44.0983 3.48633H62.2207C62.2207 3.48633 50.0565 8.95847 50.0565 26.9533ZM53.5426 69.3082V60.6272C55.6671 64.1928 58.6582 67.1839 62.2238 69.3084H53.5426V69.3082ZM96.2617 47.9486C96.2617 59.7264 86.6796 69.3082 74.9021 69.3082C63.1304 69.3082 53.5526 59.7359 53.5428 47.9663V24.8459C53.5428 13.9883 61.6859 4.99684 72.1856 3.65832C72.3636 3.63554 72.5421 3.61509 72.7216 3.59696C73.0802 3.56047 73.4414 3.53281 73.8049 3.51445C74.1684 3.49586 74.5345 3.48656 74.9024 3.48656C86.6801 3.48656 96.2619 13.0684 96.2619 24.8461V47.9486H96.2617Z" fill="white"/>
<path d="M74.902 15.4019C69.6946 15.4019 65.458 19.6384 65.458 24.8459V47.9486C65.458 53.156 69.6946 57.3926 74.902 57.3926C80.1094 57.3926 84.346 53.156 84.346 47.9486V24.8459C84.346 19.6384 80.1094 15.4019 74.902 15.4019ZM80.8597 47.9486C80.8597 51.2336 78.1871 53.9063 74.9018 53.9063C71.6167 53.9063 68.9441 51.2336 68.9441 47.9486V24.8459C68.9441 21.5608 71.6167 18.8882 74.9018 18.8882C78.1871 18.8882 80.8597 21.5608 80.8597 24.8459V47.9486Z" fill="white"/>
<path d="M74.9023 26.9534C73.9394 26.9534 73.1592 27.7338 73.1592 28.6965V44.0984C73.1592 45.0611 73.9394 45.8416 74.9023 45.8416C75.8653 45.8416 76.6455 45.0611 76.6455 44.0984V28.6965C76.6455 27.7338 75.865 26.9534 74.9023 26.9534Z" fill="white"/>
<path d="M74.9019 7.70093C65.4481 7.70093 57.7568 15.392 57.7568 24.846V47.9487C57.7568 57.4025 65.4481 65.0938 74.9019 65.0938C84.3557 65.0938 92.047 57.4025 92.047 47.9487V24.846C92.0467 15.3922 84.3554 7.70093 74.9019 7.70093ZM88.5604 47.9487C88.5604 55.4801 82.4333 61.6075 74.9017 61.6075C67.37 61.6075 61.2432 55.4801 61.2432 47.9487V24.846C61.2432 17.3146 67.3703 11.1873 74.9019 11.1873C82.4335 11.1873 88.5606 17.3146 88.5606 24.846V47.9487H88.5604Z" fill="white"/>
</g>
<defs>
<clipPath id="clip0">
<rect width="119" height="119" fill="white"/>
</clipPath>
</defs>
</svg>
