<svg width="20" height="20" viewBox="0 0 20 20" fill="none" xmlns="http://www.w3.org/2000/svg">
<g clip-path="url(#clip0)">
<path d="M16.087 15.2173C14.8887 15.2173 13.9131 16.1929 13.9131 17.3912C13.9131 18.5894 14.8887 19.5651 16.087 19.5651C17.2853 19.5651 18.2609 18.5895 18.2609 17.3912C18.2609 16.1929 17.2852 15.2173 16.087 15.2173ZM16.087 18.6955C15.3678 18.6955 14.7826 18.1103 14.7826 17.3912C14.7826 16.672 15.3678 16.0868 16.087 16.0868C16.8061 16.0868 17.3913 16.672 17.3913 17.3912C17.3913 18.1103 16.8061 18.6955 16.087 18.6955Z" fill="black"/>
<path d="M7.39168 15.2173C6.19343 15.2173 5.21777 16.1929 5.21777 17.3912C5.21777 18.5894 6.19343 19.5651 7.39168 19.5651C8.58992 19.5651 9.56558 18.5895 9.56558 17.3912C9.56558 16.193 8.58996 15.2173 7.39168 15.2173ZM7.39168 18.6955C6.67253 18.6955 6.08733 18.1103 6.08733 17.3912C6.08733 16.672 6.67253 16.0868 7.39168 16.0868C8.11082 16.0868 8.69602 16.672 8.69602 17.3912C8.69602 18.1103 8.11082 18.6955 7.39168 18.6955Z" fill="black"/>
<path d="M17.8261 13.4781H7.79043C6.75824 13.4781 5.86175 12.7433 5.65912 11.7302L3.46957 0.784136C3.42869 0.580657 3.25044 0.43457 3.0435 0.43457H0.434797C0.194796 0.43457 0 0.629367 0 0.869367C0 1.10937 0.194796 1.30416 0.434797 1.30416H2.68696L4.80608 11.9016C5.08957 13.3189 6.34521 14.3477 7.79043 14.3477H17.8261C18.0661 14.3477 18.2609 14.1529 18.2609 13.9129C18.2609 13.6729 18.0661 13.4781 17.8261 13.4781Z" fill="black"/>
<path d="M19.8921 3.1904C19.8095 3.09734 19.6912 3.04346 19.566 3.04346H3.9138C3.6738 3.04346 3.479 3.23825 3.479 3.47825C3.479 3.71825 3.6738 3.91301 3.9138 3.91301H19.0738L18.4555 8.85735C18.3738 9.50867 17.8173 9.99996 17.1608 9.99996H5.21815C4.97815 9.99996 4.78335 10.1948 4.78335 10.4348C4.78335 10.6748 4.97815 10.8696 5.21815 10.8696H17.1608C18.2547 10.8696 19.1825 10.0513 19.3182 8.96521L19.9973 3.53214C20.0129 3.40863 19.9747 3.28342 19.8921 3.1904Z" fill="black"/>
</g>
<defs>
<clipPath id="clip0">
<rect width="20" height="20" fill="white"/>
</clipPath>
</defs>
</svg>
