<svg width="35" height="35" viewBox="0 0 35 35" fill="none" xmlns="http://www.w3.org/2000/svg">
<g clip-path="url(#clip0)">
<path d="M33.3029 2.89551H1.69709C0.761318 2.89551 0 3.65683 0 4.5926V24.9505C0 25.8862 0.761318 26.6475 1.69709 26.6475H5.18335C5.46649 26.6475 5.69604 26.418 5.69604 26.1348C5.69604 25.8516 5.46649 25.6221 5.18335 25.6221H1.69709C1.32672 25.6221 1.02539 25.3209 1.02539 24.9505V11.9269H33.9746V24.9505C33.9746 25.3209 33.6733 25.6221 33.303 25.6221H32.9295C33.2052 24.7462 33.3541 23.8147 33.3541 22.849C33.3541 21.5339 33.0835 20.2626 32.5498 19.0706C32.4341 18.8122 32.1307 18.6966 31.8724 18.8122C31.6139 18.9279 31.4982 19.2312 31.6139 19.4896C32.0882 20.549 32.3287 21.6793 32.3287 22.8491C32.3287 24.705 31.711 26.4193 30.6707 27.7975H17.5261C16.4858 26.4193 15.868 24.705 15.868 22.8491C15.868 18.3108 19.5601 14.6187 24.0984 14.6187C26.6637 14.6187 29.0371 15.7841 30.6101 17.8158C30.7836 18.0397 31.1055 18.0806 31.3293 17.9074C31.5532 17.7341 31.5942 17.4121 31.4209 17.1882C29.6523 14.9037 26.9834 13.5934 24.0984 13.5934C18.9947 13.5934 14.8426 17.7455 14.8426 22.8491C14.8426 23.8148 14.9916 24.7464 15.2672 25.6223H7.0175C6.73435 25.6223 6.5048 25.8517 6.5048 26.135C6.5048 26.4182 6.73435 26.6477 7.0175 26.6477H15.6584C17.1144 29.87 20.3575 32.1048 24.0984 32.1048C27.8375 32.1048 31.0816 29.8713 32.5382 26.6477H33.3029C34.2386 26.6477 34.9999 25.8863 34.9999 24.9506V4.5926C35 3.65683 34.2387 2.89551 33.3029 2.89551ZM18.4429 28.8228H29.7538C28.2781 30.2207 26.2867 31.0794 24.0984 31.0794C21.9101 31.0794 19.9187 30.2207 18.4429 28.8228ZM1.02539 10.9016V8.79943H26.7377C27.021 8.79943 27.2504 8.56995 27.2504 8.28674C27.2504 8.00352 27.021 7.77404 26.7377 7.77404H1.02539V4.5926C1.02539 4.22223 1.32672 3.9209 1.69709 3.9209H33.303C33.6733 3.9209 33.9746 4.22223 33.9746 4.5926V7.77404H28.6403C28.3571 7.77404 28.1276 8.00352 28.1276 8.28674C28.1276 8.56995 28.3571 8.79943 28.6403 8.79943H33.9746V10.9016H1.02539Z" fill="#353F52"/>
<path d="M12.4211 22.6831C13.5234 22.1551 14.1304 21.4084 14.1304 20.5808C14.1304 19.7532 13.5233 19.0066 12.4211 18.4786C11.4389 18.0081 10.1444 17.749 8.77612 17.749C7.40784 17.749 6.11332 18.0081 5.13113 18.4786C4.02884 19.0066 3.42188 19.7532 3.42188 20.5808C3.42188 21.4084 4.02891 22.1551 5.13113 22.6831C6.11332 23.1535 7.40777 23.4126 8.77612 23.4126C10.1445 23.4126 11.4389 23.1535 12.4211 22.6831ZM4.44727 20.5808C4.44727 20.1755 4.85797 19.7463 5.5741 19.4033C6.4208 18.9977 7.55796 18.7744 8.77612 18.7744C9.99429 18.7744 11.1314 18.9978 11.9781 19.4033C12.6943 19.7464 13.105 20.1755 13.105 20.5808C13.105 20.9861 12.6943 21.4152 11.9781 21.7583C11.1314 22.1639 9.99429 22.3872 8.77612 22.3872C7.55796 22.3872 6.4208 22.1638 5.5741 21.7583C4.85797 21.4153 4.44727 20.9861 4.44727 20.5808Z" fill="#353F52"/>
<path d="M20.6296 21.1724C20.8287 21.1724 21.0205 21.2309 21.1844 21.3416C21.4189 21.5001 21.7377 21.4385 21.8962 21.2039C22.0547 20.9693 21.9931 20.6505 21.7584 20.4921C21.4244 20.2663 21.034 20.147 20.6296 20.147C19.5167 20.147 18.6113 21.0523 18.6113 22.1652C18.6113 23.2781 19.5167 24.1835 20.6296 24.1835C21.0781 24.1835 21.4819 24.0352 21.7967 23.7548C21.8583 23.6999 21.917 23.6395 21.9709 23.5751C22.1529 23.3582 22.1245 23.0349 21.9075 22.8529C21.6907 22.6709 21.3673 22.6993 21.1853 22.9163C21.1632 22.9426 21.1396 22.967 21.115 22.9889C20.9889 23.1012 20.8256 23.1581 20.6296 23.1581C20.0821 23.1581 19.6367 22.7126 19.6367 22.1652C19.6367 21.6178 20.0821 21.1724 20.6296 21.1724Z" fill="#353F52"/>
<path d="M24.7982 20.5039L24.2279 22.2203L23.628 20.4919C23.5352 20.2243 23.2429 20.0824 22.9756 20.1756C22.7081 20.2684 22.5665 20.5606 22.6593 20.828L23.69 23.7975C23.7722 24.029 23.9918 24.1837 24.2371 24.1837C24.2384 24.1837 24.2397 24.1837 24.2411 24.1837C24.488 24.1821 24.7074 24.0238 24.7881 23.7865L25.7713 20.827C25.8606 20.5583 25.7151 20.2681 25.4463 20.1789C25.1779 20.0896 24.8874 20.2351 24.7982 20.5039Z" fill="#353F52"/>
<path d="M28.5853 20.5039L28.0151 22.2202L27.4151 20.4919C27.3223 20.2243 27.03 20.0824 26.7627 20.1756C26.4952 20.2685 26.3536 20.5606 26.4464 20.828L27.4772 23.7975C27.5594 24.029 27.7789 24.1837 28.0243 24.1837C28.0256 24.1837 28.0269 24.1837 28.0282 24.1837C28.2751 24.1821 28.4945 24.0238 28.5752 23.7865L29.5584 20.827C29.6478 20.5583 29.5023 20.2681 29.2335 20.1789C28.9651 20.0896 28.6746 20.2351 28.5853 20.5039Z" fill="#353F52"/>
</g>
<defs>
<clipPath id="clip0">
<rect width="35" height="35" fill="white"/>
</clipPath>
</defs>
</svg>
