<svg width="40" height="40" viewBox="0 0 40 40" fill="none" xmlns="http://www.w3.org/2000/svg">
<g clip-path="url(#clip0)">
<path d="M35.6984 28.6532C35.7695 28.2908 35.6531 27.9175 35.3966 27.6566L19.6369 11.8989L21.0494 10.486C21.2563 10.2791 21.3708 9.99852 21.3708 9.70515C21.3708 9.41177 21.2544 9.13153 21.0494 8.92208L17.8098 5.6869C17.6029 5.48 17.3223 5.36579 17.0279 5.36579C16.7345 5.36579 16.4543 5.48219 16.2459 5.6869L15.2924 6.64476C14.5364 5.88103 13.0677 4.40356 10.2098 1.53291C8.30691 -0.373307 5.53335 -0.526199 3.795 1.21181C2.86562 2.13937 2.47409 3.27603 2.66383 4.49661C2.82147 5.51248 3.38851 6.53273 4.30074 7.44497C7.16516 10.2985 8.64225 11.7675 9.40706 12.5287L8.26714 13.6698C7.83693 14.1014 7.83693 14.8002 8.26714 15.2311L11.5023 18.4663C11.719 18.682 12.0018 18.79 12.2843 18.79C12.5667 18.79 12.8506 18.6798 13.0662 18.4663L14.4802 17.0538L30.2352 32.8115C30.4487 33.0206 30.7293 33.1352 31.0182 33.1352C31.0894 33.1352 31.1587 33.1268 31.2321 33.1133C32.1658 32.9301 33.833 32.5247 34.469 31.8818C35.1072 31.2457 35.513 29.5847 35.6984 28.6532ZM12.2861 16.1262L10.6127 14.4503L11.757 13.3049C11.9661 13.0958 12.0792 12.8068 12.077 12.5112C12.0748 12.2156 11.9485 11.9288 11.7362 11.7241C11.5161 11.5125 5.86431 5.88322 5.86431 5.88322C5.29398 5.31361 4.93493 4.70131 4.85064 4.15981C4.77073 3.65078 4.93894 3.19575 5.36039 2.77721C6.26095 1.87154 7.60449 2.05034 8.64845 3.0965C8.64845 3.0965 14.3069 8.77977 14.4751 8.95455C14.678 9.17896 14.9659 9.31069 15.2658 9.31909C15.5592 9.31909 15.8598 9.20889 16.0748 8.99542L17.0322 8.03574L18.7071 9.70916L12.2861 16.1262ZM32.9376 30.2988C32.7588 30.4302 32.0856 30.6524 31.3696 30.8228L16.1091 15.5654L18.1441 13.5296L33.4032 28.7889C33.2332 29.503 33.0237 30.1671 32.9376 30.2988ZM37.3831 37.6625C37.3831 38.9542 36.3369 40 35.0427 40C33.7509 40 32.7004 38.9542 32.7004 37.6625C32.7004 36.3704 35.0427 32.9046 35.0427 32.9046C35.0427 32.9046 37.3831 36.3704 37.3831 37.6625Z" fill="#353F52"/>
</g>
<defs>
<clipPath id="clip0">
<rect width="40" height="40" fill="white"/>
</clipPath>
</defs>
</svg>
