<svg width="21" height="21" viewBox="0 0 21 21" fill="none" xmlns="http://www.w3.org/2000/svg">
<g clip-path="url(#clip0)">
<path d="M19.9438 2.70006L19.1747 1.93092C17.7665 0.522707 15.4834 0.522707 14.0752 1.93088C14.0752 1.93088 14.0752 1.93088 14.0751 1.93092L4.24695 11.7591C3.2512 12.7548 3.2512 14.3693 4.24695 15.365L4.7597 15.8778C5.77395 16.8279 7.3514 16.8279 8.36565 15.8778L15.6221 8.6213C15.7959 8.45342 15.8007 8.17648 15.6329 8.00265C15.465 7.82887 15.1881 7.82407 15.0142 7.99191C15.0106 7.99544 15.007 7.999 15.0035 8.00265L7.747 15.2591C7.08057 15.8827 6.04478 15.8827 5.37835 15.2591L4.8656 14.7464C4.21151 14.0924 4.21143 13.032 4.86544 12.3779C4.86548 12.3779 4.86556 12.3778 4.8656 12.3777L14.6937 2.54953C15.7752 1.51953 17.4746 1.51953 18.556 2.54953L19.3252 3.31867C20.3913 4.38538 20.3913 6.11426 19.3252 7.18097L8.36561 18.1405C6.88643 19.6192 4.48882 19.6192 3.00965 18.1405L1.98412 17.1159C0.50548 15.6367 0.50548 13.2391 1.98412 11.76L10.372 3.37207C10.5458 3.20419 10.5507 2.92725 10.3828 2.75342C10.2149 2.57964 9.93797 2.5748 9.76414 2.74268C9.76049 2.7462 9.75692 2.74977 9.7534 2.75342L1.36551 11.1404C-0.455164 12.9611 -0.455164 15.9129 1.36547 17.7336C1.36547 17.7337 1.36551 17.7337 1.36551 17.7337L2.39104 18.7592C4.21168 20.5799 7.16354 20.5799 8.98422 18.7593C8.98422 18.7592 8.98426 18.7592 8.98426 18.7592L19.9438 7.79962C21.352 6.39145 21.3521 4.10827 19.9438 2.70006C19.9439 2.70006 19.9439 2.70006 19.9438 2.70006Z" fill="#CFD8DC"/>
<path d="M5.68725 20.1251C4.45003 20.1278 3.26302 19.6361 2.39019 18.7592L1.36552 17.7346C-0.455147 15.9139 -0.455188 12.9621 1.36548 11.1414L1.36552 11.1413L9.75344 2.75342C9.92132 2.57964 10.1983 2.5748 10.3721 2.74268C10.5459 2.91056 10.5507 3.1875 10.3828 3.36133C10.3793 3.36498 10.3757 3.36854 10.3721 3.37207L1.98417 11.7591C0.505536 13.2383 0.505536 15.6359 1.98417 17.115L3.0097 18.1406C4.48887 19.6192 6.88648 19.6192 8.36565 18.1406L19.3252 7.18101C20.3913 6.1143 20.3913 4.38542 19.3252 3.31871L18.5561 2.54957C17.4746 1.51957 15.7752 1.51957 14.6938 2.54957L4.86557 12.3777C4.21148 13.0317 4.2114 14.0921 4.8654 14.7462C4.86545 14.7462 4.86553 14.7463 4.86557 14.7464L5.37831 15.2591C6.04475 15.8827 7.08053 15.8827 7.74696 15.2591L15.0034 8.00261C15.1713 7.82883 15.4483 7.82399 15.6221 7.99187C15.7959 8.15975 15.8007 8.43669 15.6328 8.61052C15.6293 8.61417 15.6257 8.61773 15.6221 8.62126L8.36565 15.8778C7.3514 16.8279 5.77396 16.8279 4.75971 15.8778L4.24696 15.365C3.25121 14.3693 3.25121 12.7548 4.24696 11.7591L14.0751 1.93092C15.4833 0.522707 17.7665 0.522707 19.1747 1.93088C19.1747 1.93088 19.1747 1.93088 19.1747 1.93092L19.9439 2.70006C21.3521 4.10827 21.3521 6.39141 19.9439 7.79962C19.9439 7.79962 19.9439 7.79962 19.9439 7.79966L8.9843 18.7592C8.11147 19.6361 6.92446 20.1278 5.68725 20.1251Z" fill="black"/>
</g>
<defs>
<clipPath id="clip0">
<rect width="21" height="21" fill="white"/>
</clipPath>
</defs>
</svg>
