<svg width="25" height="13" viewBox="0 0 25 13" fill="none" xmlns="http://www.w3.org/2000/svg">
<path d="M4.64156 0.0502033C4.4121 0.170072 4.21689 0.437205 4.21346 0.632419C4.21346 0.707765 4.21346 0.707765 3.34699 0.718039C2.38805 0.728313 2.36407 0.735163 2.22708 0.9612C2.14489 1.09477 2.14146 1.19409 2.20996 1.32765C2.31955 1.54342 2.18598 1.53314 5.30255 1.53314H8.14171L8.23417 1.62218C8.36774 1.75918 8.35747 1.95097 8.20678 2.10166L8.09033 2.2181H4.54909C1.10375 2.2181 1.00785 2.22152 0.901686 2.2866C0.590029 2.47496 0.603729 2.88251 0.929084 2.99553C1.0147 3.02635 1.81953 3.03663 4.06962 3.03663L7.09372 3.04005L7.17591 3.12567C7.27523 3.22157 7.28551 3.36883 7.21016 3.51952C7.10057 3.73186 7.21016 3.72501 4.34703 3.72501C1.79213 3.72501 1.73734 3.72501 1.62774 3.79351C1.51815 3.862 1.40513 4.04009 1.40513 4.15311C1.40513 4.22846 1.49075 4.386 1.56267 4.44764C1.61062 4.48874 2.14831 4.49901 5.04226 4.51271L8.46706 4.52984L8.54926 4.62573C8.68282 4.78327 8.64515 5.03328 8.46364 5.15315C8.38144 5.21137 8.12116 5.2148 4.31621 5.23192C1.10717 5.24562 0.2407 5.25932 0.182479 5.29357C0.0283629 5.37919 -0.0504075 5.68399 0.0352124 5.85181C0.127682 6.02305 0.0626109 6.01962 3.13123 6.01962C4.94295 6.01962 6.02176 6.03332 6.07998 6.05387C6.29917 6.13607 6.30259 6.50595 6.0834 6.63951C5.98408 6.70116 5.90189 6.70458 4.8402 6.70458C4.21346 6.70458 3.69974 6.70801 3.69974 6.71143C3.69974 6.71828 3.66892 7.03679 3.63467 7.42379C3.597 7.81079 3.5422 8.46835 3.50796 8.8896L3.44631 9.65333L3.5285 9.80745C3.57988 9.90677 3.66207 9.99239 3.75112 10.0472C3.89153 10.1294 3.90181 10.1294 4.78883 10.1294H5.68613V10.0232C5.68613 9.8554 5.78202 9.52319 5.91216 9.25263C6.15532 8.74234 6.62452 8.26972 7.13824 8.02313C8.65885 7.29365 10.3267 8.23889 10.3575 9.84512L10.361 10.1294H14.183H18.0051L18.0257 9.96157C18.0805 9.50607 18.3647 8.93755 18.7243 8.56767C19.4196 7.85532 20.4093 7.59503 21.2826 7.89641C22.1115 8.18067 22.6457 8.9033 22.6971 9.8143L22.7176 10.1362L22.9985 10.1225C23.2348 10.1157 23.2999 10.0986 23.4197 10.0198C23.6423 9.8691 23.7245 9.69443 23.7656 9.27318C23.8615 8.31081 24.0088 6.45115 24.0088 6.20799C24.0088 5.90661 23.9095 5.56755 23.7656 5.36206C23.6869 5.25589 23.1937 4.70793 21.9813 3.39281C21.4847 2.85169 21.4128 2.79004 21.1902 2.68387C21.0532 2.6188 20.8511 2.55031 20.7415 2.52976C20.6182 2.50578 20.0292 2.49208 19.286 2.49208H18.0325L18.1147 1.48177C18.1969 0.492002 18.1969 0.471454 18.1353 0.331037C18.0976 0.255692 18.0154 0.149523 17.9503 0.101575L17.8339 0.00910568L11.2891 0.00225639C5.37447 -0.0045929 4.73403 -0.00116825 4.64156 0.0502033ZM20.8237 3.28664C20.9813 3.36541 21.1388 3.51952 21.8066 4.249C22.2416 4.72505 22.6389 5.16685 22.6902 5.22507L22.7827 5.33467H20.6045C18.5531 5.33467 18.4264 5.33124 18.4264 5.27302C18.4264 5.2422 18.464 4.77642 18.512 4.23873C18.5599 3.70104 18.5976 3.24211 18.5976 3.21814C18.5976 3.18047 18.7962 3.17362 19.6182 3.18389L20.6354 3.19417L20.8237 3.28664Z" fill="#BDBDBD"/>
<path d="M7.80902 8.22823C7.04186 8.37207 6.34663 9.01936 6.15142 9.77281C6.08292 10.0399 6.08292 10.5023 6.14799 10.7626C6.28841 11.2968 6.70623 11.7352 7.26105 11.9339C7.52819 12.0263 8.0556 12.04 8.35699 11.9613C9.07962 11.7695 9.71321 11.1325 9.88102 10.4338C10.1961 9.0947 9.14811 7.97822 7.80902 8.22823ZM8.36384 9.24539C8.54535 9.30019 8.78166 9.51253 8.85358 9.69062C8.89125 9.77966 8.91523 9.9235 8.91523 10.0502C8.9118 10.4201 8.71317 10.7318 8.34671 10.9235C8.14465 11.0297 7.74737 11.0331 7.55216 10.927C7.25763 10.7729 7.11036 10.5263 7.11036 10.1975C7.11036 9.53993 7.74395 9.05703 8.36384 9.24539Z" fill="#BDBDBD"/>
<path d="M20.1377 8.22853C19.1753 8.40662 18.4253 9.30049 18.4253 10.2663C18.4253 11.0882 18.9219 11.7492 19.7096 11.965C19.9391 12.0301 20.4391 12.0266 20.6994 11.9581C21.3946 11.78 22.0282 11.1465 22.2097 10.4512C22.285 10.1635 22.2782 9.67379 22.1926 9.40666C21.9323 8.55388 21.0624 8.05729 20.1377 8.22853ZM20.8124 9.28337C21.3158 9.54365 21.4049 10.2218 20.9939 10.691C20.809 10.8999 20.5795 10.9992 20.2747 11.0026C19.9802 11.0026 19.7986 10.9273 19.6411 10.7389C19.5041 10.5745 19.4527 10.4341 19.4527 10.2046C19.4527 9.75256 19.6925 9.41351 20.1274 9.25254C20.2918 9.1909 20.6651 9.20802 20.8124 9.28337Z" fill="#BDBDBD"/>
</svg>
