<svg width="72" height="72" viewBox="0 0 72 72" fill="none" xmlns="http://www.w3.org/2000/svg">
<g clip-path="url(#clip0)">
<path d="M32.264 20.5763L31.5675 12.2172C31.522 11.6706 31.0651 11.2501 30.5165 11.2501H29.462V10.1953C29.462 8.45058 28.0426 7.03125 26.2979 7.03125C24.5532 7.03125 23.1338 8.45058 23.1338 10.1953V11.2501H22.0793C21.5375 11.2501 21.0838 11.6606 21.0298 12.1998L20.1859 20.6373C20.1562 20.9339 20.2534 21.229 20.4534 21.45C20.6533 21.6709 20.9374 21.7969 21.2354 21.7969H31.2195C31.2205 21.7969 31.2213 21.7969 31.2223 21.7969C31.8048 21.7969 32.277 21.3247 32.277 20.7422C32.277 20.6858 32.2725 20.6303 32.264 20.5763ZM25.2432 10.1953C25.2432 9.61369 25.7163 9.14062 26.2979 9.14062C26.8795 9.14062 27.3526 9.61369 27.3526 10.1953V11.2501H25.2432V10.1953ZM22.4008 19.6876L23.0337 13.3595H29.546L30.0733 19.6876H22.4008Z" fill="black"/>
<path d="M60.2511 9.38672C60.2485 9.36098 60.244 9.33595 60.2397 9.31092C60.2381 9.30206 60.2373 9.29306 60.2356 9.28434C60.2297 9.25453 60.2219 9.22528 60.2134 9.19631C60.2122 9.19252 60.2115 9.18844 60.2104 9.18464C60.2014 9.15511 60.1907 9.12628 60.1793 9.09787C60.1781 9.0945 60.1769 9.09113 60.1757 9.08775C60.1644 9.06061 60.1516 9.03417 60.1381 9.0083C60.1357 9.0038 60.1339 8.99902 60.1315 8.99452C60.1186 8.97047 60.1042 8.94712 60.0895 8.9242C60.0855 8.91816 60.0823 8.91183 60.0782 8.90578C60.0635 8.88384 60.0474 8.86289 60.0311 8.84208C60.0262 8.83575 60.0218 8.829 60.0168 8.82281C59.9948 8.79623 59.9718 8.7705 59.9473 8.74617L51.5106 0.309094C51.4863 0.284766 51.4607 0.261562 51.434 0.239625C51.4271 0.234 51.4197 0.229219 51.4128 0.223734C51.3927 0.207984 51.3724 0.192375 51.3512 0.178172C51.3446 0.173672 51.3375 0.170016 51.3308 0.165797C51.3084 0.151594 51.2859 0.137531 51.2626 0.125016C51.2574 0.122203 51.252 0.120094 51.2468 0.117422C51.2214 0.104344 51.1956 0.0916875 51.1692 0.0807188C51.1654 0.0791719 51.1615 0.0780469 51.1577 0.0766406C51.1297 0.0653906 51.1013 0.0548437 51.0722 0.0459844C51.068 0.0447187 51.0636 0.043875 51.0594 0.04275C51.0307 0.0344531 51.0019 0.0267188 50.9723 0.0208125C50.9635 0.0189844 50.9543 0.0182813 50.9455 0.0167344C50.9206 0.012375 50.8956 0.00801563 50.87 0.00548438C50.8351 0.00182813 50.7999 0 50.7646 0H12.7979C12.2154 0 11.7432 0.472219 11.7432 1.05469V64.8246C11.7432 65.4071 12.2154 65.8793 12.7979 65.8793H36.704C37.2864 65.8793 37.7586 65.4071 37.7586 64.8246C37.7586 64.2421 37.2864 63.7699 36.704 63.7699H13.8525V2.10938H49.7099V9.49191C49.7099 10.0744 50.1822 10.5466 50.7646 10.5466H58.1469V63.7699H52.1727C51.5902 63.7699 51.118 64.2421 51.118 64.8246C51.118 65.4071 51.5902 65.8793 52.1727 65.8793H59.2016C59.784 65.8793 60.2563 65.4071 60.2563 64.8246V9.49191C60.2563 9.45661 60.2546 9.42145 60.2511 9.38672ZM51.8193 8.43722V3.60098L56.6554 8.43722H51.8193Z" fill="black"/>
<path d="M50.7649 30.0225H21.2354C20.6529 30.0225 20.1807 30.4947 20.1807 31.0771C20.1807 31.6596 20.6529 32.1318 21.2354 32.1318H50.7649C51.3474 32.1318 51.8196 31.6596 51.8196 31.0771C51.8196 30.4947 51.3474 30.0225 50.7649 30.0225Z" fill="black"/>
<path d="M50.7649 35.6484H21.2354C20.6529 35.6484 20.1807 36.1207 20.1807 36.7031C20.1807 37.2856 20.6529 37.7578 21.2354 37.7578H50.7649C51.3474 37.7578 51.8196 37.2856 51.8196 36.7031C51.8196 36.1207 51.3474 35.6484 50.7649 35.6484Z" fill="black"/>
<path d="M50.7649 41.2734H21.2354C20.6529 41.2734 20.1807 41.7457 20.1807 42.3281C20.1807 42.9106 20.6529 43.3828 21.2354 43.3828H50.7649C51.3474 43.3828 51.8196 42.9106 51.8196 42.3281C51.8196 41.7457 51.3474 41.2734 50.7649 41.2734Z" fill="black"/>
<path d="M33.8908 46.8984H21.2354C20.6529 46.8984 20.1807 47.3707 20.1807 47.9531C20.1807 48.5356 20.6529 49.0078 21.2354 49.0078H33.8908C34.4732 49.0078 34.9454 48.5356 34.9454 47.9531C34.9454 47.3707 34.4732 46.8984 33.8908 46.8984Z" fill="black"/>
<path d="M51.8213 57.0938C51.8213 53.0228 48.5094 49.7109 44.4385 49.7109C40.3675 49.7109 37.0557 53.0228 37.0557 57.0938C37.0557 59.4398 38.157 61.5323 39.8684 62.8855V70.945C39.8684 70.9563 39.8697 70.9671 39.8701 70.9784C39.8708 70.9999 39.8714 71.0212 39.8734 71.0428C39.8748 71.0578 39.8772 71.0726 39.8791 71.0875C39.8818 71.1067 39.8843 71.126 39.888 71.1451C39.8911 71.1612 39.8952 71.1769 39.899 71.1927C39.9032 71.2102 39.9073 71.2278 39.9125 71.2451C39.9174 71.2617 39.9231 71.2777 39.9289 71.2941C39.9345 71.3101 39.94 71.3263 39.9465 71.3422C39.9534 71.359 39.9611 71.3752 39.9689 71.3917C39.9757 71.4063 39.9824 71.421 39.9899 71.4355C39.9991 71.4528 40.0091 71.4693 40.0191 71.486C40.0268 71.4989 40.0342 71.512 40.0425 71.5247C40.0542 71.5424 40.067 71.5593 40.0797 71.5763C40.0866 71.5854 40.0925 71.595 40.0996 71.604C40.101 71.6058 40.1027 71.6072 40.1041 71.6091C40.1278 71.6383 40.1528 71.6663 40.1794 71.6927C40.1868 71.7002 40.195 71.7067 40.2027 71.7138C40.222 71.732 40.2417 71.7497 40.2623 71.7664C40.2747 71.7764 40.2875 71.7854 40.3003 71.7948C40.3176 71.8075 40.3349 71.8199 40.3528 71.8314C40.3663 71.8401 40.3799 71.8483 40.3938 71.8563C40.4125 71.8672 40.4317 71.8774 40.4511 71.8872C40.4643 71.8938 40.4775 71.9004 40.4911 71.9065C40.5127 71.9162 40.5347 71.9248 40.5569 71.9331C40.569 71.9376 40.581 71.9423 40.5932 71.9463C40.6181 71.9546 40.6437 71.9613 40.6694 71.9677C40.6797 71.9702 40.6898 71.9733 40.7001 71.9755C40.7285 71.9817 40.7575 71.9861 40.7867 71.9899C40.7949 71.9909 40.8029 71.9927 40.8111 71.9935C40.8455 71.9972 40.8805 71.999 40.916 71.9993C40.9186 71.9993 40.9213 71.9997 40.924 71.9997C40.9251 71.9997 40.9261 71.9994 40.9272 71.9994C40.9787 71.9993 41.0289 71.9942 41.0782 71.9871C41.0889 71.9855 41.0993 71.9841 41.11 71.9821C41.1602 71.9733 41.209 71.9609 41.2564 71.9452C41.2651 71.9422 41.2736 71.9388 41.2822 71.9357C41.3326 71.9175 41.3819 71.8964 41.4285 71.8709C41.4302 71.8701 41.4318 71.8688 41.4335 71.8679C41.4827 71.8408 41.5289 71.8093 41.5728 71.7749C41.5759 71.7725 41.5793 71.7709 41.5824 71.7685L44.439 69.4832L47.2956 71.7685C47.2985 71.7709 47.3017 71.7723 47.3047 71.7747C47.3489 71.8093 47.3954 71.8408 47.4446 71.8681C47.4462 71.8689 47.4476 71.8701 47.4491 71.8709C47.4958 71.8965 47.5452 71.9176 47.5958 71.9359C47.6044 71.939 47.6127 71.9423 47.6212 71.9452C47.6686 71.9609 47.7176 71.9733 47.7678 71.9823C47.7783 71.9841 47.7887 71.9855 47.7994 71.9871C47.8489 71.9944 47.8991 71.9993 47.9506 71.9994C47.9517 71.9994 47.9527 71.9997 47.9538 71.9997C47.9564 71.9997 47.9592 71.9993 47.9617 71.9993C47.9971 71.999 48.0321 71.9972 48.0667 71.9935C48.0748 71.9927 48.0826 71.9909 48.0905 71.9899C48.1199 71.9861 48.1491 71.9816 48.1776 71.9754C48.1877 71.9731 48.1977 71.9702 48.2076 71.9677C48.2337 71.9613 48.2594 71.9544 48.2846 71.9461C48.2965 71.9422 48.3082 71.9374 48.3201 71.9332C48.3426 71.9248 48.3649 71.916 48.3867 71.9063C48.4 71.9004 48.4131 71.8938 48.4263 71.8872C48.4459 71.8774 48.4651 71.8671 48.484 71.8561C48.4978 71.8481 48.5114 71.84 48.5249 71.8312C48.5428 71.8196 48.5602 71.8073 48.5774 71.7947C48.5901 71.7853 48.6029 71.7763 48.6155 71.7663C48.6361 71.7497 48.6557 71.7318 48.6749 71.7138C48.6827 71.7067 48.6908 71.7 48.6983 71.6926C48.725 71.6662 48.7499 71.638 48.7737 71.6088C48.7751 71.6071 48.7768 71.6057 48.7782 71.6039C48.7853 71.595 48.7911 71.5854 48.798 71.5764C48.8108 71.5594 48.8236 71.5424 48.8354 71.5245C48.8437 71.5119 48.851 71.4988 48.8589 71.486C48.8689 71.4693 48.879 71.4527 48.8881 71.4354C48.8957 71.421 48.9023 71.4064 48.9091 71.3918C48.9168 71.3753 48.9246 71.359 48.9314 71.342C48.9379 71.3261 48.9434 71.3099 48.949 71.2939C48.9548 71.2777 48.9606 71.2616 48.9655 71.245C48.9707 71.2275 48.9748 71.21 48.979 71.1924C48.9828 71.1766 48.9868 71.161 48.9899 71.145C48.9936 71.1257 48.9961 71.1065 48.9988 71.0872C49.0008 71.0724 49.0032 71.0577 49.0046 71.0426C49.0065 71.0211 49.0071 70.9996 49.0078 70.9781C49.0082 70.967 49.0095 70.9561 49.0095 70.9449L49.0092 62.8855C50.7199 61.5323 51.8213 59.4398 51.8213 57.0938ZM45.1128 67.3213C45.1128 67.3211 45.1126 67.3211 45.1126 67.321L45.0977 67.309C45.09 67.303 45.0818 67.2979 45.0741 67.292C45.0554 67.2778 45.0367 67.2639 45.0173 67.2511C45.0059 67.2436 44.9942 67.237 44.9826 67.23C44.9647 67.2193 44.947 67.2085 44.9286 67.1989C44.9141 67.1913 44.8993 67.1846 44.8845 67.1778C44.8686 67.1704 44.8528 67.1628 44.8366 67.1563C44.8194 67.1493 44.802 67.1434 44.7847 67.1373C44.7702 67.1323 44.7557 67.1271 44.7411 67.1227C44.7227 67.1172 44.7041 67.1127 44.6854 67.1082C44.6711 67.1048 44.6566 67.1012 44.6421 67.0982C44.6238 67.0947 44.6055 67.092 44.5871 67.0895C44.5716 67.0873 44.556 67.085 44.5404 67.0835C44.5236 67.0818 44.5068 67.0811 44.4899 67.0802C44.4724 67.0794 44.4549 67.0785 44.4374 67.0785C44.4224 67.0785 44.4077 67.0794 44.3928 67.0801C44.3734 67.0809 44.354 67.0818 44.3346 67.0837C44.3213 67.085 44.3083 67.087 44.2952 67.0888C44.2745 67.0916 44.2538 67.0947 44.2333 67.0987C44.2211 67.1012 44.2088 67.1041 44.1966 67.1071C44.1759 67.112 44.1554 67.1169 44.1349 67.1231C44.1219 67.1271 44.1093 67.1316 44.0965 67.1361C44.0775 67.1425 44.0585 67.1491 44.0398 67.1567C44.0248 67.1628 44.0101 67.17 43.9954 67.1767C43.9796 67.184 43.9639 67.1912 43.9483 67.1993C43.9305 67.2086 43.9132 67.2192 43.8958 67.2296C43.8839 67.2369 43.8718 67.2436 43.8599 67.2514C43.8405 67.2642 43.8218 67.2782 43.803 67.2924C43.7953 67.2983 43.7872 67.3033 43.7796 67.3093L43.765 67.3211C43.7649 67.3213 43.7646 67.3214 43.7643 67.3217L41.9778 68.751V64.0538C42.748 64.3269 43.5759 64.4771 44.4385 64.4771C45.3011 64.4771 46.1289 64.3271 46.8993 64.0538L46.8994 68.7506L45.1128 67.3213ZM44.4385 62.3672C41.5306 62.3672 39.165 60.0016 39.165 57.0938C39.165 54.1859 41.5306 51.8203 44.4385 51.8203C47.3463 51.8203 49.7119 54.1859 49.7119 57.0938C49.7119 60.0016 47.3463 62.3672 44.4385 62.3672Z" fill="black"/>
<path d="M44.4385 53.9297C42.6937 53.9297 41.2744 55.349 41.2744 57.0938C41.2744 58.8385 42.6937 60.2578 44.4385 60.2578C46.1832 60.2578 47.6025 58.8385 47.6025 57.0938C47.6025 55.349 46.1832 53.9297 44.4385 53.9297ZM44.4385 58.1484C43.8569 58.1484 43.3838 57.6754 43.3838 57.0938C43.3838 56.5121 43.8569 56.0391 44.4385 56.0391C45.0201 56.0391 45.4932 56.5121 45.4932 57.0938C45.4932 57.6754 45.0201 58.1484 44.4385 58.1484Z" fill="black"/>
</g>
<defs>
<clipPath id="clip0">
<rect width="72" height="72" fill="white"/>
</clipPath>
</defs>
</svg>
