<svg width="24" height="24" viewBox="0 0 24 24" fill="none" xmlns="http://www.w3.org/2000/svg">
<path d="M17.16 0H6.84C3.08002 0 0 3.08002 0 6.84V17.16C0 20.92 3.08002 24 6.84 24H17.16C20.92 24 24 20.92 24 17.16V6.84C24 3.08002 20.92 0 17.16 0ZM23.2 17.16C23.2 20.48 20.48 23.2 17.16 23.2H6.84C3.51998 23.2 0.800016 20.48 0.800016 17.16V6.84C0.800016 3.51998 3.52003 0.800016 6.84 0.800016H17.16C20.48 0.800016 23.2 3.52003 23.2 6.84V17.16Z" fill="white"/>
<path d="M17.1599 2.40002H6.8399C4.39992 2.40002 2.3999 4.40004 2.3999 6.84002V17.16C2.3999 19.6 4.39992 21.6 6.8399 21.6H17.1599C19.5999 21.6 21.5999 19.6 21.5999 17.16V6.84002C21.5999 4.40004 19.5999 2.40002 17.1599 2.40002ZM20.7999 17.16C20.7999 19.16 19.1599 20.8 17.1599 20.8H6.8399C4.83989 20.8 3.19992 19.16 3.19992 17.16V6.84002C3.19992 4.84001 4.83993 3.20004 6.8399 3.20004H17.1599C19.1599 3.20004 20.7999 4.84006 20.7999 6.84002V17.16Z" fill="white"/>
<path d="M12.0001 5.59998C8.4801 5.59998 5.6001 8.47998 5.6001 12C5.6001 15.5199 8.4801 18.3999 12.0001 18.3999C15.5201 18.3999 18.4001 15.5199 18.4001 12C18.4001 8.47998 15.5201 5.59998 12.0001 5.59998ZM12.0001 17.6C8.92007 17.6 6.40007 15.08 6.40007 12C6.40007 8.91994 8.92007 6.39994 12.0001 6.39994C15.0801 6.39994 17.6001 8.91994 17.6001 12C17.6001 15.08 15.0801 17.6 12.0001 17.6Z" fill="white"/>
<path d="M12.0001 7.59998C9.56013 7.59998 7.6001 9.55996 7.6001 12C7.6001 14.44 9.56008 16.4 12.0001 16.4C14.4401 16.4 16.4001 14.44 16.4001 12C16.4001 9.55996 14.4401 7.59998 12.0001 7.59998ZM12.0001 15.6C10.0001 15.6 8.40011 14 8.40011 12C8.40011 9.99998 10.0001 8.39999 12.0001 8.39999C14.0001 8.39999 15.6001 9.99998 15.6001 12C15.6001 14 14.0001 15.6 12.0001 15.6Z" fill="white"/>
<path d="M18.3997 4.40002C17.7197 4.40002 17.1997 4.92001 17.1997 5.60003C17.1997 6.28004 17.7197 6.80003 18.3997 6.80003C19.0797 6.80003 19.5997 6.28004 19.5997 5.60003C19.5997 4.92001 19.0797 4.40002 18.3997 4.40002Z" fill="white"/>
</svg>
