<svg width="74" height="74" viewBox="0 0 74 74" fill="none" xmlns="http://www.w3.org/2000/svg">
<path d="M19.6562 12.7188C19.6562 8.89272 16.5448 5.78125 12.7188 5.78125C8.89272 5.78125 5.78125 8.89272 5.78125 12.7188C5.78125 16.5448 8.89272 19.6562 12.7188 19.6562C16.5448 19.6562 19.6562 16.5448 19.6562 12.7188ZM8.09375 12.7188C8.09375 10.1681 10.1681 8.09375 12.7188 8.09375C15.2694 8.09375 17.3438 10.1681 17.3438 12.7188C17.3438 15.2694 15.2694 17.3438 12.7188 17.3438C10.1681 17.3438 8.09375 15.2694 8.09375 12.7188Z" fill="black"/>
<path d="M63.4453 8.91797L65.0805 7.28278L66.7157 8.91797L65.0805 10.5532L63.4453 8.91797Z" fill="black"/>
<path d="M60.1738 12.1875L61.809 10.5523L63.4442 12.1875L61.809 13.8227L60.1738 12.1875Z" fill="black"/>
<path d="M56.9873 15.375L58.5399 13.8224L60.1751 15.4576L58.6225 17.0102L56.9873 15.375Z" fill="black"/>
<path d="M69.375 49.7183H62.9613C64.8911 45.7789 65.9062 41.4222 65.9062 36.9995C65.9062 31.1258 64.1534 25.5307 60.8638 20.7241C61.7368 20.1148 62.589 19.4754 63.418 18.8036L70.5312 25.9157L73.0103 23.4367L69.5415 13.0293L69.9115 12.6593C71.0573 11.5158 71.6875 9.99413 71.6875 8.37307C71.6875 5.03151 68.968 2.31201 65.6253 2.31201C64.0077 2.31201 62.4849 2.94216 61.3391 4.0857L60.9668 4.45801L50.5617 0.989258L48.0838 3.46826L55.1971 10.5815C54.5241 11.4094 53.8859 12.2627 53.2765 13.1345C48.4688 9.84613 42.8737 8.09326 37 8.09326C32.5311 8.09326 28.1269 9.13041 24.1552 11.1007C23.3643 5.49054 18.5439 1.15576 12.7188 1.15576C6.34319 1.15576 1.15625 6.3427 1.15625 12.7183V13.0362C1.15625 15.3256 1.82803 17.5433 3.09875 19.4499L9.30434 28.7578C8.51116 31.4229 8.09375 34.191 8.09375 36.9995C8.09375 40.6024 8.74703 44.0943 10.0282 47.4058H9.25C7.33756 47.4058 5.78125 48.9621 5.78125 50.8745C5.78125 52.3799 6.75134 53.6518 8.09375 54.1305V56.6558H1.15625V60.528C1.15625 67.3187 6.68081 72.8433 13.4715 72.8433H26.27C31.021 72.8433 35.3153 70.0706 37.348 65.8965C40.8272 65.856 44.2023 65.2109 47.4074 63.9714V69.3745C47.4074 71.2869 48.9637 72.8433 50.8762 72.8433H69.3762C71.2886 72.8433 72.8449 71.2869 72.8449 69.3745V53.187C72.8437 51.2746 71.2874 49.7183 69.375 49.7183V49.7183ZM56.6562 52.0308H63.5938V54.3433H56.6562V52.0308ZM50.875 49.7183H47.4224C48.0919 46.2218 48.4885 42.3136 48.5509 38.1558H63.5556C63.3798 42.2107 62.2802 46.1709 60.3447 49.7183H50.875ZM38.1204 63.3597L38.1562 61.2808H33.0896L29.4023 53.905C30.1446 53.4992 30.7181 52.8367 31.006 52.0308H44.5468C42.9836 58.2583 40.5497 62.3746 38.1204 63.3597ZM31.006 49.7183C30.6152 48.6221 29.696 47.7804 28.549 47.5075C28.0818 44.5348 27.8228 41.399 27.7731 38.1558H46.2384C46.1725 42.4304 45.7436 46.327 45.066 49.7183H31.006ZM10.4502 35.8433C10.523 34.1413 10.7404 32.4566 11.1324 30.8113C11.6122 31.0737 12.1545 31.2183 12.7188 31.2183C13.8299 31.2183 14.8613 30.6656 15.4787 29.7417L19.1186 24.2808H26.5776C25.9081 27.7773 25.5115 31.6854 25.4491 35.8433H10.4502ZM28.9409 24.2808H45.0741C45.7748 27.8166 46.1656 31.7524 46.2292 35.8433H27.772C27.839 31.5698 28.2622 27.6697 28.9409 24.2808ZM37 10.4058C39.0547 10.4058 41.1683 12.7321 42.8645 16.7813L41.9858 17.6601L43.4935 18.4139C43.8866 19.5297 44.2439 20.7126 44.5572 21.9683H29.4601C31.2673 14.7868 34.2319 10.4058 37 10.4058V10.4058ZM49.8113 18.9874L45.8892 17.0264L46.605 16.3119L50.668 17.3271C50.3697 17.8728 50.0876 18.4278 49.8113 18.9874ZM48.84 21.0872C48.8308 21.108 48.8203 21.1288 48.8111 21.1496C48.6978 21.4121 48.6377 21.6884 48.6018 21.9683H46.9299C46.7588 21.2433 46.5726 20.5414 46.376 19.8558L48.84 21.0872ZM63.5487 35.8433H48.5417C48.4804 31.7756 48.1 27.8501 47.4224 24.2808H49.2539C49.8182 24.9803 50.6703 25.437 51.637 25.437C52.0532 25.437 52.4602 25.3538 52.8487 25.1884C52.8707 25.1792 52.8903 25.1688 52.9123 25.1595L56.3394 32.0138L60.2487 28.1033L58.7525 22.1174C58.815 22.0793 58.8751 22.0376 58.9375 21.9983C61.7576 26.1111 63.3359 30.8517 63.5487 35.8433ZM56.6724 23.3315L57.6876 27.3945L56.9719 28.1091L55.0109 24.1871C55.5717 23.9119 56.1267 23.6298 56.6724 23.3315ZM70.1983 22.3128L65.1824 17.297C65.764 16.7732 66.3352 16.2367 66.8902 15.6806L67.7123 14.8585L70.1983 22.3128ZM65.6253 4.62451C67.6927 4.62451 69.375 6.3057 69.375 8.37307C69.375 9.37554 68.9853 10.3167 68.2766 11.0244L65.2553 14.0456C61.4131 17.8879 56.9314 20.9218 51.9399 23.0621C51.4508 23.2679 50.875 22.8863 50.875 22.3625C50.875 22.2585 50.8958 22.1567 50.9363 22.0608C53.0777 17.0669 56.1105 12.5864 59.9527 8.74307L62.9728 5.72179V5.72295C63.6828 5.01416 64.6251 4.62451 65.6253 4.62451ZM51.6878 3.80126L59.141 6.28604L58.3189 7.10929C57.7628 7.66545 57.2263 8.23663 56.7025 8.81707L51.6878 3.80126ZM51.8809 15.247L45.8962 13.7496L44.6266 15.0192C43.867 13.3692 43.0264 11.991 42.121 10.9145C45.6545 11.6002 48.9949 12.9992 52.0012 15.0608C51.9607 15.1244 51.9191 15.1845 51.8809 15.247ZM24.2338 13.6791C26.6492 12.3552 29.2531 11.4129 31.953 10.8925C29.9133 13.3091 28.2218 17.1652 27.0736 21.9683H20.6599L22.3387 19.4499C23.4892 17.7237 24.1194 15.7384 24.2338 13.6791V13.6791ZM3.46875 13.0362V12.7183C3.46875 7.61804 7.61853 3.46826 12.7188 3.46826C17.819 3.46826 21.9688 7.61804 21.9688 12.7183V13.0362C21.9688 14.8689 21.4311 16.6426 20.4148 18.1677L13.5536 28.4583C13.1801 29.0179 12.2563 29.0179 11.8828 28.4583L5.02159 18.1677C4.00641 16.6437 3.46875 14.8689 3.46875 13.0362V13.0362ZM10.4363 38.1558H25.4606C25.5092 41.3539 25.7555 44.4527 26.1972 47.4058H12.5291C11.2769 44.4666 10.5728 41.3644 10.4363 38.1558ZM9.25 49.7183H27.75C28.3871 49.7183 28.9062 50.2363 28.9062 50.8745C28.9062 51.5128 28.3871 52.0308 27.75 52.0308H9.25C8.61291 52.0308 8.09375 51.5128 8.09375 50.8745C8.09375 50.2363 8.61291 49.7183 9.25 49.7183ZM10.4062 54.3433H27.0354L30.5042 61.2808H14.5896L12.2771 56.6558H10.4062V54.3433ZM26.27 70.5308H13.4715C7.95616 70.5308 3.46875 66.0434 3.46875 60.528V58.9683H10.8479L13.1604 63.5933H35.7917C34.4701 67.6945 30.6013 70.5308 26.27 70.5308V70.5308ZM42.0459 63.1076C44.0855 60.6911 45.7782 56.8338 46.9264 52.0308H47.619C47.4895 52.3938 47.4062 52.78 47.4062 53.187V61.4692C45.6719 62.2092 43.882 62.7561 42.0459 63.1076V63.1076ZM70.5312 69.3745C70.5312 70.0128 70.0121 70.5308 69.375 70.5308H50.875C50.2379 70.5308 49.7188 70.0128 49.7188 69.3745V53.187C49.7188 52.5488 50.2379 52.0308 50.875 52.0308H54.3438V56.6558H65.9062V52.0308H69.375C70.0121 52.0308 70.5312 52.5488 70.5312 53.187V69.3745Z" fill="black"/>
<path d="M65.9062 65.9062H68.2188V68.2188H65.9062V65.9062Z" fill="black"/>
<path d="M61.2812 65.9062H63.5938V68.2188H61.2812V65.9062Z" fill="black"/>
<path d="M19.6562 56.6562H21.9688V58.9688H19.6562V56.6562Z" fill="black"/>
<path d="M24.2812 56.6562H26.5938V58.9688H24.2812V56.6562Z" fill="black"/>
<path d="M15.0312 56.6562H17.3438V58.9688H15.0312V56.6562Z" fill="black"/>
<path d="M31.2188 40.4688H33.5312V42.7812H31.2188V40.4688Z" fill="black"/>
<path d="M40.4688 40.4688H42.7812V42.7812H40.4688V40.4688Z" fill="black"/>
<path d="M35.8438 40.4688H38.1562V42.7812H35.8438V40.4688Z" fill="black"/>
<path d="M40.4688 31.2188H42.7812V33.5312H40.4688V31.2188Z" fill="black"/>
<path d="M35.8438 31.2188H38.1562V33.5312H35.8438V31.2188Z" fill="black"/>
<path d="M31.2188 31.2188H33.5312V33.5312H31.2188V31.2188Z" fill="black"/>
</svg>
