<svg width="119" height="119" viewBox="0 0 119 119" fill="none" xmlns="http://www.w3.org/2000/svg">
<g clip-path="url(#clip0)">
<g clip-path="url(#clip1)">
<path d="M117.257 38.5045C108.219 38.5045 99.8563 40.5383 93.0734 44.3865C86.714 47.9943 82.031 53.0473 79.4163 59.0874C73.7602 55.758 66.757 53.9061 59.5013 53.9061C54.2048 53.9061 49.1311 54.8535 44.5517 56.6654L46.2705 41.7734L47.5904 30.3373C50.853 30.0296 53.3541 29.1938 55.2657 28.1512L58.1454 31.7167C58.735 32.4469 59.797 32.5794 60.5474 32.016L75.9491 20.4648C76.3533 20.1615 76.6061 19.6979 76.6419 19.1938C76.6777 18.6899 76.493 18.1951 76.1357 17.8376L58.809 0.510813C58.4069 0.108729 57.8337 -0.07093 57.2731 0.0269181C56.7137 0.125928 43.6072 2.58561 36.9238 16.0415C35.5227 17.2194 29.6412 22.3737 22.6719 31.4789C15.4641 40.8949 5.71348 56.4894 0.190988 77.3085C-0.258741 79.0043 0.0963937 80.7737 1.16552 82.1633C2.23208 83.5499 3.84739 84.3452 5.59657 84.3452H8.7463C10.1754 85.6719 14.3871 89.3162 21.1279 92.9573C21.3913 93.0995 21.675 93.1669 21.9549 93.1669C22.5747 93.1669 23.1748 92.8355 23.49 92.2521C23.9476 91.4049 23.6318 90.3477 22.7848 89.89C18.9946 87.8427 16.0382 85.7809 13.9955 84.1986C14.61 83.9292 15.0397 83.3163 15.0397 82.6023C15.0397 81.6394 14.2593 80.8592 13.2966 80.8592H9.44611H5.59634C4.9379 80.8592 4.32989 80.5598 3.92851 80.0378C3.52456 79.513 3.39069 78.8441 3.56059 78.2027C8.92178 57.9916 18.3773 42.8437 25.3654 33.6953C26.0096 32.852 26.6441 32.0456 27.2682 31.2707L42.4119 44.7965L40.844 58.3813C40.3389 58.6516 39.839 58.9291 39.3507 59.2229C38.5256 59.7189 38.2588 60.7899 38.7547 61.615C39.251 62.4403 40.3217 62.7071 41.1468 62.2109C46.3144 59.1041 52.8328 57.3929 59.5011 57.3929C67.9272 57.3929 75.9368 60.0926 81.476 64.8C81.8037 65.0787 82.2049 65.2149 82.6039 65.2149C83.0978 65.2149 83.5882 65.0062 83.9331 64.6004C84.5567 63.8669 84.4672 62.7668 83.7337 62.1435C83.2942 61.77 82.8396 61.409 82.3736 61.0586C86.9144 49.8404 99.6583 42.5185 115.514 42.0186V115.513H106.756C97.2449 115.513 88.5694 107.618 83.886 94.8103C87.3474 92.6767 90.4608 90.0648 93.1987 86.9929C95.1424 90.2103 96.2622 93.9787 96.2622 98.004C96.2622 98.9669 97.0424 99.7471 98.0054 99.7471C98.9683 99.7471 99.7485 98.9669 99.7485 98.004C99.7485 92.4699 97.9291 87.353 94.858 83.2187C94.7919 83.1076 94.7132 83.0028 94.6211 82.9066C90.0757 76.9841 82.9284 73.1582 74.903 73.1582H67.2023C66.2394 73.1582 65.4591 73.9385 65.4591 74.9014C65.4591 75.8643 66.2394 76.6445 67.2023 76.6445H74.903C81.3749 76.6445 87.1833 79.5386 91.1035 84.0998C88.1989 87.4901 84.8431 90.2777 81.0493 92.4606C80.9682 92.4973 80.8922 92.5415 80.8194 92.5891C72.9958 97.0204 63.3269 98.9023 51.9092 98.1892C44.0604 97.6986 36.4336 95.9389 29.2405 92.9596C28.351 92.59 27.3314 93.0135 26.963 93.903C26.5946 94.7924 27.0169 95.812 27.9064 96.1804C35.4556 99.3076 43.4582 101.154 51.6916 101.669C53.3123 101.77 54.9025 101.821 56.4646 101.821C63.9968 101.821 70.8347 100.644 76.8421 98.3094C78.2057 97.7795 79.5279 97.188 80.8092 96.5384C86.0628 110.448 95.8727 118.999 106.756 118.999H117.257C118.22 118.999 119 118.219 119 117.256V40.2476C119 39.2847 118.22 38.5045 117.257 38.5045ZM57.031 3.6638L72.249 18.8818L59.8007 28.2181L58.1057 26.1194C60.491 23.8993 61.1376 21.6241 61.1854 21.4447C61.4334 20.5144 60.8831 19.5498 59.9527 19.3016C59.0228 19.0545 58.0701 19.5972 57.8221 20.5274C57.7807 20.6689 57.1609 22.6489 54.7242 24.3785C54.6666 24.4148 54.6099 24.4538 54.5557 24.4975C54.5552 24.4978 54.555 24.4982 54.5548 24.4985C52.9109 25.6178 50.4807 26.6093 46.9191 26.8952L40.3382 17.0239C45.3631 7.48708 54.2589 4.41265 57.031 3.6638ZM29.4952 28.5848C33.1832 24.2719 36.2651 21.309 37.9734 19.7616L44.2201 29.1315L42.9013 40.5583L29.4952 28.5848Z" fill="white"/>
</g>
</g>
<defs>
<clipPath id="clip0">
<rect width="119" height="119" fill="white"/>
</clipPath>
<clipPath id="clip1">
<rect width="119" height="119" fill="white" transform="translate(0 -0.000244141)"/>
</clipPath>
</defs>
</svg>
