<svg width="40" height="40" viewBox="0 0 40 40" fill="none" xmlns="http://www.w3.org/2000/svg">
<path d="M34.004 24.5523C33.7238 24.3904 33.3654 24.4864 33.2036 24.7667L29.6106 30.9902C29.1596 30.7953 28.663 30.6869 28.1413 30.6869C26.0916 30.6869 24.4241 32.3544 24.4241 34.4042C24.4241 36.4538 26.0916 38.1214 28.1413 38.1214C30.191 38.1214 31.8586 36.4538 31.8586 34.4042C31.8586 33.2967 31.3712 32.3013 30.6002 31.6198L34.2185 25.3528C34.3803 25.0724 34.2843 24.7141 34.004 24.5523ZM28.1413 36.9495C26.7377 36.9495 25.5959 35.8076 25.5959 34.4041C25.5959 33.0006 26.7377 31.8587 28.1413 31.8587C29.5448 31.8587 30.6866 33.0005 30.6866 34.4041C30.6867 35.8076 29.5449 36.9495 28.1413 36.9495Z" fill="#353F52"/>
<path d="M22.505 33.8179H15.5292C15.2474 32.0456 13.7089 30.6865 11.8586 30.6865C9.80893 30.6865 8.14136 32.354 8.14136 34.4038C8.14136 36.4535 9.80893 38.1211 11.8586 38.1211C13.7089 38.1211 15.2474 36.762 15.5292 34.9897H22.505C22.8286 34.9897 23.091 34.7274 23.091 34.4038C23.091 34.0802 22.8287 33.8179 22.505 33.8179ZM11.8587 36.9492C10.4552 36.9492 9.31331 35.8073 9.31331 34.4038C9.31331 33.0003 10.4552 31.8584 11.8587 31.8584C13.2622 31.8584 14.4041 33.0002 14.4041 34.4038C14.404 35.8073 13.2621 36.9492 11.8587 36.9492Z" fill="#353F52"/>
<path d="M8.34352 29.7902C8.45203 29.9782 8.64899 30.0833 8.85149 30.0833C8.95086 30.0833 9.05164 30.058 9.14391 30.0047C9.42414 29.8429 9.52016 29.4845 9.35836 29.2043L5.81484 23.0668C6.79195 22.3963 7.43445 21.2719 7.43445 20C7.43445 17.9503 5.76688 16.2827 3.71719 16.2827C1.6675 16.2827 0 17.9503 0 20C0 22.0497 1.66758 23.7172 3.71727 23.7172C4.07633 23.7172 4.42328 23.6651 4.75203 23.5696L8.34352 29.7902ZM1.17188 20C1.17188 18.5965 2.31375 17.4546 3.71727 17.4546C5.12078 17.4546 6.26258 18.5965 6.26258 20C6.26258 21.4035 5.1207 22.5454 3.71719 22.5454C2.31367 22.5454 1.17188 21.4035 1.17188 20Z" fill="#353F52"/>
<path d="M5.99916 15.4422C6.09142 15.4955 6.1922 15.5208 6.29158 15.5208C6.49408 15.5208 6.69103 15.4157 6.79955 15.2277L10.3893 9.01016C10.8403 9.205 11.3369 9.31344 11.8585 9.31344C13.9082 9.31344 15.5758 7.64594 15.5758 5.59617C15.5758 3.54641 13.9082 1.87891 11.8585 1.87891C9.80884 1.87891 8.14127 3.54648 8.14127 5.59617C8.14127 6.70367 8.62869 7.69899 9.39963 8.38055L5.7847 14.6418C5.62283 14.922 5.71884 15.2804 5.99916 15.4422ZM11.8585 3.05078C13.262 3.05078 14.4039 4.19266 14.4039 5.59617C14.4039 6.99969 13.262 8.14156 11.8585 8.14156C10.455 8.14156 9.31314 6.99977 9.31314 5.59617C9.31314 4.19258 10.4549 3.05078 11.8585 3.05078Z" fill="#353F52"/>
<path d="M17.4949 6.18211H24.4707C24.7525 7.95438 26.291 9.31344 28.1413 9.31344C30.191 9.31344 31.8585 7.64594 31.8585 5.59617C31.8585 3.54641 30.191 1.87891 28.1413 1.87891C26.291 1.87891 24.7525 3.23797 24.4707 5.01023H17.4949C17.1713 5.01023 16.9089 5.27258 16.9089 5.59617C16.9089 5.91977 17.1712 6.18211 17.4949 6.18211ZM28.1412 3.05078C29.5447 3.05078 30.6866 4.19266 30.6866 5.59617C30.6866 6.99969 29.5447 8.14156 28.1412 8.14156C26.7377 8.14156 25.5958 6.99977 25.5958 5.59617C25.5958 4.19258 26.7378 3.05078 28.1412 3.05078Z" fill="#353F52"/>
<path d="M36.2826 16.2833C35.9235 16.2833 35.5765 16.3355 35.2478 16.431L31.6706 10.235C31.5088 9.95465 31.1504 9.85871 30.8702 10.0205C30.59 10.1823 30.4939 10.5407 30.6557 10.8209L34.185 16.9339C33.2079 17.6043 32.5654 18.7287 32.5654 20.0006C32.5654 22.0503 34.233 23.7179 36.2827 23.7179C38.3324 23.7179 39.9999 22.0503 39.9999 20.0006C39.9999 17.9509 38.3323 16.2833 36.2826 16.2833ZM36.2826 22.546C34.8791 22.546 33.7372 21.4042 33.7372 20.0006C33.7372 18.597 34.8791 17.4552 36.2826 17.4552C37.6861 17.4552 38.828 18.5971 38.828 20.0006C38.828 21.4041 37.6861 22.546 36.2826 22.546Z" fill="#353F52"/>
</svg>
