<svg width="66" height="66" viewBox="0 0 66 66" fill="none" xmlns="http://www.w3.org/2000/svg">
<g clip-path="url(#clip0)">
<path d="M36.4022 38.5945C36.9292 38.5083 37.2864 38.0112 37.2002 37.4842C36.7486 34.7247 35.3252 32.1975 33.1925 30.3681C31.0356 28.5179 28.2809 27.499 25.4355 27.499C18.8607 27.499 13.5117 32.848 13.5117 39.4229C13.5117 45.9977 18.8607 51.3467 25.4355 51.3467C30.8847 51.3467 35.6346 47.6645 36.9862 42.3922C37.1188 41.8749 36.807 41.3482 36.2898 41.2156C35.7725 41.0829 35.2457 41.3947 35.1132 41.9119C33.9809 46.3285 30.0013 49.413 25.4355 49.413C19.9269 49.413 15.4453 44.9313 15.4453 39.4227C15.4453 33.9142 19.9269 29.4325 25.4355 29.4325C27.8193 29.4325 30.1271 30.286 31.9336 31.8356C33.7211 33.3689 34.9138 35.4858 35.292 37.7964C35.3781 38.3235 35.8749 38.6809 36.4022 38.5945V38.5945Z" fill="black"/>
<path d="M25.4343 31.8047C21.2333 31.8047 17.8154 35.2225 17.8154 39.4237C17.8154 43.6248 21.2333 47.0426 25.4343 47.0426C29.6355 47.0426 33.0533 43.6248 33.0533 39.4237C33.0533 35.2225 29.6355 31.8047 25.4343 31.8047V31.8047ZM25.4343 45.109C22.2994 45.109 19.749 42.5586 19.749 39.4237C19.749 36.2887 22.2994 33.7383 25.4343 33.7383C28.5693 33.7383 31.1197 36.2887 31.1197 39.4237C31.1197 42.5586 28.5693 45.109 25.4343 45.109Z" fill="black"/>
<path d="M25.4346 35.6582C23.3587 35.6582 21.6699 37.3471 21.6699 39.4229C21.6699 41.4987 23.3587 43.1876 25.4346 43.1876C27.5105 43.1876 29.1993 41.4987 29.1993 39.4229C29.1993 37.3471 27.5105 35.6582 25.4346 35.6582ZM25.4346 41.254C24.4249 41.254 23.6035 40.4325 23.6035 39.4229C23.6035 38.4133 24.4249 37.5918 25.4346 37.5918C26.4444 37.5918 27.2657 38.4133 27.2657 39.4229C27.2657 40.4325 26.4444 41.254 25.4346 41.254Z" fill="black"/>
<path d="M57.6422 40.7939V34.6758C57.6422 34.1419 57.2093 33.709 56.6754 33.709C56.1414 33.709 55.7086 34.1419 55.7086 34.6758V39.584C54.4533 38.9342 53.0876 38.4696 51.6478 38.2253V23.4738C51.6478 22.7275 51.0406 22.1203 50.2942 22.1203H48.0738L53.6713 14.5121L59.1732 22.1203H57.0621C56.3157 22.1203 55.7086 22.7275 55.7086 23.4738V30.1641C55.7086 30.698 56.1414 31.1309 56.6754 31.1309C57.2093 31.1309 57.6422 30.698 57.6422 30.1641V24.0539H60.3086C60.8194 24.0539 61.2813 23.7713 61.5139 23.3163C61.7464 22.8613 61.7048 22.3214 61.4055 21.9071L54.7722 12.7348C54.5198 12.3856 54.1118 12.1761 53.6809 12.1743C53.6791 12.1743 53.6773 12.1743 53.6755 12.1743C53.2466 12.1743 52.8394 12.3802 52.5852 12.7256L45.8365 21.8983C45.5323 22.3119 45.4873 22.8533 45.7189 23.3113C45.9505 23.7694 46.4134 24.0539 46.9267 24.0539H49.714V38.0339C49.5766 38.0299 49.439 38.0273 49.3005 38.0273C48.9004 38.0273 48.5044 38.0451 48.1126 38.0783C48.0814 37.5343 48.0336 36.9912 47.9632 36.4539C47.8349 35.4728 46.989 34.7329 45.9959 34.7329H41.2168C41.1953 34.7329 41.1768 34.7173 41.1696 34.6933C40.8529 33.6373 40.4279 32.6104 39.9061 31.6413C39.894 31.6189 39.896 31.5945 39.9112 31.5793L43.2891 28.2015C43.9913 27.4993 44.066 26.378 43.4631 25.593C43.1322 25.1624 42.7849 24.7451 42.4247 24.3396V11.8797H45.091C45.6019 11.8797 46.0638 11.5971 46.2964 11.142C46.5288 10.687 46.4873 10.1471 46.1878 9.73307L39.5551 0.560484C39.3027 0.211406 38.8947 0.00180469 38.4639 0C38.4619 0 38.4601 0 38.4582 0C38.0295 0 37.6223 0.205863 37.3679 0.551332L30.6193 9.72404C30.3151 10.1376 30.2701 10.679 30.5016 11.137C30.7332 11.5951 31.1961 11.8796 31.7094 11.8796H34.4968V23.728L33.2785 24.9463C33.2633 24.9614 33.2389 24.9635 33.2165 24.9515C32.2476 24.4298 31.2208 24.0047 30.1644 23.6879C30.1404 23.6807 30.1249 23.6623 30.1249 23.6408V18.8617C30.1249 17.8686 29.385 17.0228 28.4039 16.8943C26.4434 16.6377 24.4259 16.6377 22.4655 16.8943C21.4843 17.0227 20.7444 17.8685 20.7444 18.8617V23.6408C20.7444 23.6623 20.729 23.6807 20.7049 23.6879C19.6489 24.0047 18.622 24.4297 17.6529 24.9515C17.6304 24.9635 17.6059 24.9615 17.591 24.9463L14.2131 21.5685C13.511 20.8662 12.3895 20.7914 11.6047 21.3944C10.0294 22.6047 8.61667 24.0173 7.40624 25.5929C6.80334 26.3778 6.87811 27.4992 7.58026 28.2013L10.9581 31.5792C10.9733 31.5944 10.9754 31.6188 10.9633 31.6412C10.4416 32.6103 10.0165 33.6371 9.69987 34.6932C9.69265 34.7172 9.67422 34.7328 9.65269 34.7328H4.87362C3.88052 34.7328 3.03464 35.4727 2.90625 36.4538C2.77786 37.434 2.71289 38.433 2.71289 39.423C2.71289 40.413 2.77799 41.412 2.90625 42.3922C3.03464 43.3733 3.88052 44.1133 4.87362 44.1133H9.65269C9.67422 44.1133 9.69265 44.1289 9.69987 44.1528C10.0166 45.2088 10.4416 46.2357 10.9634 47.2048C10.9755 47.2273 10.9735 47.2515 10.9583 47.2667L7.58026 50.6447C6.87811 51.3468 6.80334 52.4682 7.40637 53.2531C8.6168 54.8287 10.0295 56.2413 11.6048 57.4516C12.3896 58.0546 13.5111 57.9797 14.2133 57.2776L17.5911 53.8997C17.6065 53.8845 17.6307 53.8824 17.6531 53.8945C18.6225 54.4164 19.6492 54.8415 20.7051 55.158C20.7292 55.1652 20.7447 55.1836 20.7447 55.2051V59.9842C20.7447 60.9773 21.4845 61.8231 22.4657 61.9516C23.446 62.08 24.4451 62.1449 25.4348 62.1449C26.4246 62.1449 27.4236 62.08 28.4042 61.9516C29.3851 61.8229 30.1251 60.9772 30.1251 59.9842V55.2051C30.1251 55.1836 30.1407 55.1652 30.1645 55.158C31.2205 54.8414 32.2474 54.4164 33.2165 53.8945C33.239 53.8824 33.2633 53.8844 33.2786 53.8997L36.1469 56.768C38.097 62.1467 43.257 66 49.3006 66C57.0127 66 63.287 59.7257 63.287 52.0137C63.287 47.4251 61.0657 43.3458 57.6422 40.7939V40.7939ZM32.8566 9.94615L38.4542 2.33797L43.9561 9.94615H41.845C41.0986 9.94615 40.4914 10.5533 40.4914 11.2997V22.4085C40.0944 22.057 39.686 21.718 39.265 21.3946C38.4802 20.7915 37.3588 20.8663 36.6566 21.5686L36.4306 21.7946V11.2997C36.4306 10.5533 35.8235 9.94615 35.0771 9.94615H32.8566ZM35.3703 53.257L34.6458 52.5325C34.0225 51.9093 33.08 51.7724 32.3 52.1921C31.4456 52.652 30.5403 53.0267 29.6092 53.306C28.7611 53.5603 28.1915 54.3235 28.1915 55.2053V59.9843C28.1915 60.0092 28.1742 60.0318 28.1532 60.0345C26.358 60.2693 24.5116 60.2693 22.7168 60.0345C22.6955 60.0318 22.6784 60.0092 22.6784 59.9843V55.2053C22.6784 54.3235 22.1086 53.5603 21.2606 53.306C20.3296 53.0269 19.4243 52.6521 18.5698 52.1921C18.2684 52.0298 17.9428 51.9508 17.6205 51.9508C17.109 51.9508 16.6063 52.1501 16.2239 52.5325L12.8461 55.9104C12.8284 55.928 12.7999 55.9315 12.7827 55.9184C11.3406 54.8105 10.0477 53.5176 8.93958 52.0753C8.9263 52.058 8.92991 52.0297 8.94744 52.012L12.3253 48.6341C12.9487 48.0107 13.0855 47.0679 12.6657 46.2883C12.2058 45.434 11.8311 44.5287 11.5519 43.5975C11.2975 42.7494 10.5343 42.1797 9.65256 42.1797H4.87362C4.84874 42.1797 4.82631 42.1625 4.82347 42.1413C4.70591 41.2439 4.64636 40.3295 4.64636 39.4231C4.64636 38.5168 4.70591 37.6023 4.82347 36.705C4.82618 36.6838 4.84874 36.6666 4.87362 36.6666H9.65269C10.5344 36.6666 11.2977 36.0968 11.552 35.2489C11.8312 34.3177 12.2059 33.4124 12.6659 32.5581C13.0856 31.7784 12.9488 30.8357 12.3254 30.2123L8.94757 26.8344C8.92991 26.8168 8.92643 26.7884 8.93971 26.7712C10.0478 25.3289 11.3407 24.0359 12.7828 22.9282C12.8001 22.9149 12.8284 22.9185 12.8461 22.936L16.2239 26.3139C16.8473 26.9373 17.7902 27.0739 18.5698 26.6543C19.424 26.1944 20.3293 25.8197 21.2604 25.5405C22.1085 25.2863 22.6784 24.523 22.6784 23.6411V18.8621C22.6784 18.8372 22.6955 18.8148 22.7168 18.8119C24.5115 18.5769 26.3584 18.5769 28.1532 18.8119C28.1743 18.8146 28.1916 18.8372 28.1916 18.8621V23.6411C28.1916 24.523 28.7614 25.2863 29.6093 25.5405C30.5407 25.8198 31.446 26.1945 32.3001 26.6543C33.0796 27.0742 34.0225 26.9374 34.6459 26.314L38.0239 22.936C38.0416 22.9185 38.0697 22.915 38.0871 22.9282C39.5293 24.036 40.8222 25.329 41.9302 26.7712C41.9434 26.7885 41.94 26.8169 41.9223 26.8345L38.5444 30.2124C37.9211 30.8358 37.7843 31.7785 38.204 32.5582C38.6639 33.4125 39.0387 34.3178 39.3179 35.249C39.5722 36.097 40.3355 36.6667 41.2172 36.6667H45.9963C46.0211 36.6667 46.0436 36.684 46.0464 36.7052C46.1187 37.2575 46.1662 37.8165 46.1939 38.3759C39.9722 39.7926 35.3146 45.3693 35.3146 52.0139C35.3143 52.4326 35.3339 52.8472 35.3703 53.257ZM49.3006 64.0664C42.6548 64.0664 37.2479 58.6596 37.2479 52.0137C37.2479 45.3678 42.6548 39.9609 49.3006 39.9609C55.9465 39.9609 61.3534 45.3678 61.3534 52.0137C61.3534 58.6596 55.9465 64.0664 49.3006 64.0664Z" fill="black"/>
<path d="M58.0092 50.5609C58.0967 51.0876 58.5943 51.4438 59.1214 51.356C59.6481 51.2685 60.0041 50.7705 59.9165 50.2438C59.5036 47.7602 58.2162 45.4846 56.2914 43.8361C54.3444 42.1685 51.8616 41.25 49.3008 41.25C43.3657 41.25 38.5371 46.0786 38.5371 52.0137C38.5371 57.9488 43.3657 62.7773 49.3008 62.7773C51.6417 62.7773 53.8691 62.0356 55.7422 60.6325C57.5519 59.2768 58.9158 57.3478 59.5826 55.2009C59.741 54.6909 59.456 54.1491 58.9461 53.9908C58.4362 53.8325 57.8943 54.1176 57.736 54.6274C57.1891 56.3885 56.0693 57.9715 54.583 59.0851C53.0471 60.2356 51.2205 60.8438 49.3008 60.8438C44.4319 60.8438 40.4707 56.8826 40.4707 52.0137C40.4707 47.1448 44.4319 43.1836 49.3008 43.1836C51.4007 43.1836 53.4366 43.9369 55.0338 45.3047C56.614 46.6581 57.6707 48.5248 58.0092 50.5609V50.5609Z" fill="black"/>
<path d="M49.3008 44.1504C48.7669 44.1504 48.334 44.5833 48.334 45.1172V52.0135C48.334 52.368 48.5279 52.694 48.8393 52.8632C48.9835 52.9414 49.1424 52.9803 49.3007 52.9803C49.4843 52.9803 49.6675 52.9281 49.8271 52.8245L54.2218 49.9718C54.6697 49.6811 54.797 49.0823 54.5064 48.6344C54.2156 48.1866 53.6167 48.0593 53.169 48.3498L50.2674 50.2332V45.1172C50.2676 44.5833 49.8347 44.1504 49.3008 44.1504Z" fill="black"/>
</g>
<defs>
<clipPath id="clip0">
<rect width="66" height="66" fill="white"/>
</clipPath>
</defs>
</svg>
