<svg width="40" height="40" viewBox="0 0 40 40" fill="none" xmlns="http://www.w3.org/2000/svg">
<g clip-path="url(#clip0)">
<path d="M26.8098 39.998C26.1698 39.998 25.5282 39.7547 25.0415 39.268L20.7315 34.958C19.7565 33.983 19.7565 32.398 20.7315 31.423L21.7082 30.4463C22.6815 29.473 24.2698 29.473 25.2432 30.4463L29.5532 34.7563C30.5282 35.7313 30.5282 37.3163 29.5532 38.2913L28.5765 39.268C28.0898 39.7547 27.4498 39.998 26.8098 39.998ZM23.4765 31.3796C23.2632 31.3796 23.0498 31.4613 22.8865 31.623L21.9098 32.5996C21.5848 32.9246 21.5848 33.453 21.9098 33.778L26.2198 38.088C26.5448 38.413 27.0732 38.413 27.3982 38.088L28.3748 37.1113C28.6998 36.7863 28.6998 36.258 28.3748 35.933L24.0648 31.623C23.9032 31.4613 23.6898 31.3796 23.4765 31.3796Z" fill="#353F52"/>
<path d="M36.5234 30.2851C35.8834 30.2851 35.2418 30.0418 34.7551 29.5551L30.4451 25.2451C29.4701 24.2701 29.4701 22.6851 30.4451 21.7101L31.4218 20.7334C32.3951 19.7601 33.9834 19.7601 34.9568 20.7334L39.2668 25.0434C40.2418 26.0184 40.2418 27.6034 39.2668 28.5784L38.2901 29.5551C37.8051 30.0401 37.1634 30.2851 36.5234 30.2851ZM33.1901 21.6668C32.9768 21.6668 32.7634 21.7484 32.6001 21.9101L31.6235 22.8868C31.2985 23.2118 31.2985 23.7401 31.6235 24.0651L35.9334 28.3751C36.2584 28.7001 36.7868 28.7001 37.1118 28.3751L38.0884 27.3984C38.4134 27.0734 38.4134 26.5451 38.0884 26.2201L33.7784 21.9101C33.6168 21.7484 33.4034 21.6668 33.1901 21.6668Z" fill="#353F52"/>
<path d="M27.0835 33.7497C26.8702 33.7497 26.6568 33.668 26.4935 33.5064C26.1685 33.1814 26.1685 32.653 26.4935 32.328L32.3268 26.4947C32.6518 26.1697 33.1802 26.1697 33.5052 26.4947C33.8302 26.8197 33.8302 27.3481 33.5052 27.6731L27.6718 33.5064C27.5102 33.668 27.2968 33.7497 27.0835 33.7497Z" fill="#353F52"/>
<path d="M21.1167 22.2166C20.9667 22.2166 20.8167 22.1782 20.6817 22.0949C20.2901 21.8532 20.1651 21.3416 20.4051 20.9482C21.8051 18.6582 24.8951 17.1666 28.2784 17.1499H28.2834C28.7417 17.1499 29.1134 17.5199 29.1167 17.9782C29.12 18.4382 28.7484 18.8132 28.2884 18.8166C25.5134 18.8316 22.9167 20.0366 21.8284 21.8182C21.6701 22.0749 21.3967 22.2166 21.1167 22.2166Z" fill="#353F52"/>
<path d="M11.905 30.3704C7.77337 30.3704 4.41004 28.7638 1.07337 25.3688C0.121708 24.4171 -0.233292 23.0271 0.153375 21.7438L2.02004 15.2871C3.16337 11.3254 4.43837 6.91876 5.08337 4.70042C5.43671 3.51376 6.33837 2.59042 7.50004 2.22209L13.8884 0.108757C14.7117 -0.15791 15.625 0.0604237 16.2234 0.66209L19.1184 3.52376C19.8767 4.25542 20.01 5.44042 19.4317 6.33709L17.3834 9.56376C17.02 10.1421 16.415 10.5188 15.7267 10.6004C15.0367 10.6838 14.3467 10.4521 13.8484 9.96376L12.665 8.78042L10.3 9.94709C9.89504 10.1504 9.39171 9.98209 9.18671 9.56876C8.98337 9.15542 9.15171 8.65542 9.56337 8.45209L12.4634 7.02042C12.7834 6.86042 13.17 6.92542 13.4234 7.17876L15.0234 8.77876C15.1534 8.90542 15.3417 8.96876 15.535 8.94542C15.7217 8.92376 15.8834 8.82542 15.98 8.67376L18.0317 5.44042C18.185 5.20209 18.1517 4.90876 17.955 4.71709L15.0467 1.84209C14.885 1.67709 14.6284 1.62209 14.405 1.69209L8.01337 3.80709C7.37837 4.00709 6.87337 4.53042 6.68337 5.17209C6.03837 7.38376 4.76504 11.7888 3.62171 15.7504L1.75171 22.2171C1.54004 22.9188 1.73337 23.6721 2.25671 24.1954C6.63171 28.6471 10.88 29.6721 17.4117 27.8488C17.8584 27.7188 18.3134 27.9838 18.4367 28.4288C18.56 28.8721 18.3017 29.3304 17.8567 29.4538C15.6834 30.0588 13.72 30.3704 11.905 30.3704Z" fill="#353F52"/>
<path d="M21.6885 20.6666C21.4751 20.6666 21.2601 20.5849 21.0985 20.4216C18.1618 17.4732 13.3918 17.2882 10.4601 20.0149C10.1218 20.3282 9.59512 20.3082 9.28179 19.9732C8.96845 19.6366 8.98679 19.1082 9.32345 18.7949C12.9001 15.4683 18.7118 15.6633 22.2785 19.2466C22.6018 19.5716 22.6018 20.0999 22.2751 20.4249C22.1135 20.5866 21.9018 20.6666 21.6885 20.6666Z" fill="#353F52"/>
<path d="M9.52981 21.6669C9.46148 21.6669 9.39148 21.6586 9.32315 21.6403C8.87648 21.5269 8.60815 21.0703 8.72315 20.6269L12.0265 7.77027C12.1415 7.32194 12.6032 7.05527 13.0398 7.17027C13.4865 7.2836 13.7548 7.74027 13.6415 8.1836L10.3381 21.0403C10.2398 21.4186 9.89981 21.6669 9.52981 21.6669Z" fill="#353F52"/>
</g>
<defs>
<clipPath id="clip0">
<rect width="40" height="40" fill="white"/>
</clipPath>
</defs>
</svg>
