<svg width="40" height="40" viewBox="0 0 40 40" fill="none" xmlns="http://www.w3.org/2000/svg">
<g clip-path="url(#clip0)">
<path d="M38.3115 38.5122C32.7194 39.1323 28.2846 36.6561 28.2404 36.6311C28.0896 36.5453 27.9114 36.5221 27.7442 36.5682C27.6737 36.5871 20.6391 38.4725 14.9738 37.2152C11.442 36.43 8.11036 33.9419 5.6778 32.1255C5.35096 31.8813 5.04151 31.6503 4.75098 31.4376C4.35395 31.1474 3.72284 30.9057 3.1662 30.6927C2.91626 30.5971 2.57385 30.4662 2.50061 30.4201C2.43683 30.3704 2.40204 30.2968 2.40204 30.2132V28.6968C2.43347 27.4969 7.4646 9.0334 8.24463 6.68446C8.26386 6.65669 8.33893 6.60237 8.39417 6.57612L18.3505 2.029L21.5692 6.21937C21.7279 6.43666 21.713 6.74 21.5341 6.9402L18.3536 10.5059C18.1455 10.7396 17.7951 10.765 17.5775 10.5834L16.2915 9.39778C16.1411 9.25892 15.9268 9.21284 15.7254 9.24977C15.524 9.28578 15.3436 9.42952 15.2509 9.61201C15.1431 9.8235 14.1696 10.0832 13.176 10.0905L12.8522 10.0579C12.5943 10.0271 12.3413 10.1622 12.2144 10.3911C12.0874 10.6194 12.1088 10.9017 12.2687 11.1089C12.5449 11.466 12.76 11.7528 12.8821 11.9173L13.5187 22.7385C13.1241 24.2754 12.7625 24.7121 12.6727 24.7994C12.4075 24.8833 12.2153 25.1308 12.2153 25.4235C12.2153 25.7848 12.5082 26.0778 12.8696 26.0778C13.6115 26.0778 14.2423 25.1027 14.7482 23.1994C19.9518 19.3059 24.4931 22.9802 24.8493 23.2827C26.5018 24.9413 26.6043 26.0433 26.6077 26.0921C26.6156 26.4467 26.9055 26.7321 27.262 26.7321C27.6233 26.7321 27.9163 26.4391 27.9163 26.0778C27.9163 25.9273 27.862 24.6364 26.1685 22.7715C27.7652 20.808 29.5838 19.6773 31.586 19.431C35.0376 19.0059 37.9416 21.3274 37.9703 21.3506C38.2505 21.5789 38.6621 21.5371 38.8904 21.2569C39.1184 20.9774 39.0772 20.566 38.7979 20.3374C38.6631 20.2273 35.4508 17.6427 31.4398 18.1307C29.0955 18.4151 26.991 19.6831 25.1767 21.9021C23.7049 20.9008 19.4834 18.6348 14.762 21.5984L14.1763 11.6466C14.1705 11.5392 14.1376 11.4348 14.0814 11.3433C14.6668 11.274 15.3641 11.1211 15.8698 10.7885L16.713 11.5651C17.497 12.2237 18.6472 12.1419 19.3292 11.3771L22.5101 7.81147C23.0966 7.15412 23.1458 6.16047 22.6163 5.43537L19.0708 0.818975C18.8858 0.577886 18.5584 0.496099 18.28 0.622442L7.85859 5.38258C7.74964 5.43049 7.19697 5.69782 7.01508 6.2447C6.6446 7.35676 1.09375 27.1526 1.09375 28.6947V30.2135C1.09375 30.7009 1.31256 31.1516 1.69373 31.4501C1.88446 31.5996 2.16919 31.7126 2.69898 31.9149C3.13111 32.0806 3.72284 32.307 3.97858 32.4938C4.26605 32.7041 4.57215 32.9326 4.89502 33.1737C7.42249 35.0616 10.8838 37.6464 14.6906 38.4923C20.109 39.6966 26.4701 38.2406 27.833 37.8973C28.7436 38.3675 32.0841 39.9224 36.4569 39.9224C37.1024 39.9224 37.7704 39.8885 38.4561 39.8122C38.8153 39.7726 39.0738 39.4491 39.0341 39.0899C38.9942 38.7304 38.6695 38.4695 38.3115 38.5122Z" fill="#353F52"/>
<path d="M35.1088 30.5852C35.0728 30.2578 34.7954 30.0029 34.4585 30.0029C34.0972 30.0029 33.8042 30.2959 33.8042 30.6572C33.8042 31.0942 34.1268 32.5737 38.2759 33.2653C38.3122 33.2711 38.3489 33.2741 38.3843 33.2741C38.6983 33.2741 38.9754 33.0474 39.0288 32.7276C39.088 32.3711 38.8472 32.0342 38.4911 31.9747C35.5895 31.491 35.1476 30.6722 35.1088 30.5852Z" fill="#353F52"/>
<path d="M27.8859 7.86843H29.8793V9.72207C29.8793 10.0834 30.1723 10.3764 30.5336 10.3764H35.767C36.1284 10.3764 36.4213 10.0834 36.4213 9.72207V7.86843H38.3842C38.6348 7.86843 38.8637 7.7253 38.9729 7.49947C39.0822 7.27364 39.0532 7.00539 38.8978 6.80855L33.6485 0.157852C33.4001 -0.156784 32.8697 -0.156784 32.6213 0.157852L27.3723 6.80886C27.2169 7.00539 27.1879 7.27395 27.2972 7.49947C27.4065 7.7253 27.635 7.86843 27.8859 7.86843ZM33.1349 1.61934L37.0344 6.55984H35.767C35.4057 6.55984 35.1127 6.8528 35.1127 7.21413V9.06808H31.1876V7.21413C31.1876 6.8528 30.8946 6.55984 30.5333 6.55984H29.2354L33.1349 1.61934Z" fill="#353F52"/>
<path d="M36.421 11.6848C36.421 11.3237 36.128 11.0308 35.7667 11.0308H30.533C30.1716 11.0308 29.8787 11.3237 29.8787 11.6848V13.6476C29.8787 14.009 30.1716 14.3019 30.533 14.3019H35.7667C36.128 14.3019 36.421 14.009 36.421 13.6476V11.6848ZM35.1124 12.9933H31.1873V12.339H35.1124V12.9933Z" fill="#353F52"/>
<path d="M35.7669 14.9556H30.5334C30.1721 14.9556 29.8792 15.2485 29.8792 15.6099C29.8792 15.9712 30.1721 16.2642 30.5334 16.2642H35.7669C36.1282 16.2642 36.4212 15.9712 36.4212 15.6099C36.4212 15.2485 36.1282 14.9556 35.7669 14.9556Z" fill="#353F52"/>
<path d="M22.5457 33.9427C13.9767 35.7778 10.3106 29.915 10.1586 29.6651C9.97186 29.3559 9.57025 29.2565 9.26172 29.442C8.95196 29.6282 8.85156 30.0301 9.03741 30.3395C9.08075 30.4116 10.1217 32.1205 12.348 33.5762C13.8815 34.579 16.2203 35.6005 19.3841 35.6005C20.4376 35.6005 21.5829 35.4872 22.8198 35.2224C23.1729 35.1467 23.3981 34.7988 23.3224 34.4454C23.2467 34.0923 22.8976 33.8661 22.5457 33.9427Z" fill="#353F52"/>
</g>
<defs>
<clipPath id="clip0">
<rect width="40" height="40" fill="white"/>
</clipPath>
</defs>
</svg>
