<svg width="15" height="8" viewBox="0 0 15 8" fill="none" xmlns="http://www.w3.org/2000/svg">
<path d="M2.70829 0.0285206C2.5744 0.0984616 2.4605 0.254331 2.4585 0.368235C2.4585 0.412198 2.4585 0.412198 1.95292 0.418193C1.39339 0.424188 1.3794 0.428185 1.29947 0.560074C1.25151 0.638008 1.24951 0.69596 1.28948 0.773894C1.35343 0.899788 1.27549 0.893793 3.09396 0.893793H4.75057L4.80452 0.94575C4.88246 1.02568 4.87646 1.13759 4.78854 1.22551L4.7206 1.29346H2.65433C0.644022 1.29346 0.588069 1.29546 0.526121 1.33342C0.344274 1.44333 0.352267 1.68113 0.542108 1.74708C0.592066 1.76506 1.06167 1.77106 2.37457 1.77106L4.13908 1.77305L4.18704 1.82301C4.245 1.87897 4.25099 1.96489 4.20703 2.05282C4.14308 2.17671 4.20703 2.17272 2.53643 2.17272C1.04568 2.17272 1.01371 2.17272 0.949765 2.21268C0.885819 2.25265 0.819874 2.35656 0.819874 2.42251C0.819874 2.46647 0.869832 2.55839 0.911797 2.59436C0.939773 2.61834 1.25351 2.62434 2.94209 2.63233L4.94041 2.64232L4.98837 2.69828C5.0663 2.7902 5.04432 2.93608 4.93841 3.00602C4.89045 3.03999 4.73858 3.04199 2.51845 3.05198C0.64602 3.05997 0.140445 3.06797 0.106474 3.08795C0.0165493 3.13791 -0.0294121 3.31576 0.020546 3.41368C0.0745006 3.51359 0.0365325 3.51159 1.82703 3.51159C2.88414 3.51159 3.51361 3.51959 3.54758 3.53158C3.67547 3.57954 3.67747 3.79535 3.54958 3.87329C3.49163 3.90926 3.44367 3.91126 2.82419 3.91126C2.4585 3.91126 2.15875 3.91326 2.15875 3.91525C2.15875 3.91925 2.14076 4.10509 2.12078 4.3309C2.0988 4.55671 2.06683 4.94039 2.04684 5.18619L2.01087 5.63181L2.05883 5.72174C2.08881 5.77969 2.13677 5.82964 2.18872 5.86162C2.27065 5.90958 2.27665 5.90958 2.79421 5.90958H3.31777V5.84763C3.31777 5.74971 3.37373 5.55587 3.44966 5.39801C3.59154 5.10026 3.86531 4.82449 4.16506 4.68061C5.05232 4.25497 6.0255 4.8065 6.04348 5.74372L6.04548 5.90958H8.27561H10.5057L10.5177 5.81166C10.5497 5.54588 10.7156 5.21416 10.9254 4.99834C11.331 4.58269 11.9086 4.43082 12.4181 4.60667C12.9017 4.77253 13.2135 5.19418 13.2434 5.72573L13.2554 5.91357L13.4193 5.90558C13.5572 5.90158 13.5951 5.89159 13.6651 5.84563C13.795 5.75771 13.8429 5.65579 13.8669 5.41C13.9229 4.84847 14.0088 3.76338 14.0088 3.6215C14.0088 3.44565 13.9508 3.24781 13.8669 3.12792C13.8209 3.06597 13.5332 2.74624 12.8258 1.97888C12.536 1.66315 12.4941 1.62718 12.3642 1.56523C12.2842 1.52726 12.1663 1.48729 12.1024 1.4753C12.0305 1.46132 11.6867 1.45332 11.2531 1.45332H10.5217L10.5697 0.863819C10.6176 0.286304 10.6176 0.274314 10.5817 0.192383C10.5597 0.14842 10.5117 0.0864716 10.4738 0.0584955L10.4058 0.00454044L6.58703 0.000544071C3.13593 -0.00345278 2.76224 -0.00145435 2.70829 0.0285206ZM12.1504 1.91693C12.2423 1.96289 12.3342 2.05282 12.7239 2.47846C12.9777 2.75623 13.2095 3.01401 13.2394 3.04798L13.2934 3.11193H12.0225C10.8255 3.11193 10.7515 3.10993 10.7515 3.07596C10.7515 3.05797 10.7735 2.7862 10.8015 2.47247C10.8295 2.15873 10.8514 1.89095 10.8514 1.87697C10.8514 1.85499 10.9673 1.85099 11.4469 1.85698L12.0404 1.86298L12.1504 1.91693Z" fill="white"/>
<path d="M4.5565 4.80012C4.10887 4.88405 3.70322 5.26173 3.58931 5.70136C3.54935 5.85723 3.54935 6.127 3.58731 6.27888C3.66924 6.59061 3.91304 6.8464 4.23677 6.9623C4.39264 7.01626 4.70038 7.02425 4.87623 6.97829C5.29788 6.86638 5.66756 6.49469 5.76548 6.08704C5.94933 5.30569 5.33784 4.65424 4.5565 4.80012ZM4.88023 5.39362C4.98614 5.42559 5.12402 5.54949 5.16599 5.6534C5.18797 5.70536 5.20196 5.78929 5.20196 5.86322C5.19996 6.07904 5.08406 6.26089 4.87023 6.3728C4.75233 6.43474 4.52053 6.43674 4.40662 6.3748C4.23477 6.28487 4.14884 6.14099 4.14884 5.94915C4.14884 5.56548 4.51853 5.28371 4.88023 5.39362Z" fill="white"/>
<path d="M11.7501 4.80037C11.1886 4.90429 10.751 5.42585 10.751 5.98938C10.751 6.46897 11.0407 6.85465 11.5003 6.98054C11.6342 7.01851 11.926 7.01651 12.0779 6.97655C12.4835 6.87263 12.8532 6.50294 12.9591 6.09728C13.0031 5.92943 12.9991 5.64367 12.9491 5.4878C12.7973 4.99022 12.2897 4.70046 11.7501 4.80037ZM12.1438 5.41586C12.4376 5.56773 12.4895 5.9634 12.2497 6.23717C12.1418 6.35906 12.0079 6.41702 11.8301 6.41901C11.6582 6.41901 11.5523 6.37505 11.4604 6.26514C11.3804 6.16922 11.3505 6.08729 11.3505 5.95341C11.3505 5.68963 11.4904 5.49179 11.7441 5.39787C11.8401 5.3619 12.0579 5.37189 12.1438 5.41586Z" fill="white"/>
</svg>
