<svg width="10" height="9" viewBox="0 0 10 9" fill="none" xmlns="http://www.w3.org/2000/svg">
<path d="M9.10581 4.04122C9.28902 3.86267 9.35369 3.60063 9.27467 3.35703C9.19546 3.11344 8.98914 2.93955 8.73566 2.90264L6.48199 2.57518C6.386 2.5612 6.30306 2.501 6.2602 2.41396L5.25264 0.37201C5.13951 0.142579 4.90989 0 4.65399 0C4.39828 0 4.16867 0.142579 4.05554 0.37201L3.04779 2.41415C3.00493 2.50119 2.9218 2.56139 2.82582 2.57537L0.57214 2.90283C0.318853 2.93955 0.112347 3.11362 0.0331365 3.35722C-0.0458876 3.60081 0.0187855 3.86286 0.201995 4.04141L1.83261 5.63084C1.90213 5.69868 1.934 5.79634 1.9176 5.89177L1.53292 8.13613C1.49881 8.33369 1.55062 8.52584 1.67848 8.67737C1.87716 8.91351 2.224 8.98545 2.50133 8.8397L4.51682 7.77996C4.60106 7.73579 4.70711 7.73616 4.79117 7.77996L6.80684 8.8397C6.90488 8.89133 7.00944 8.91742 7.11735 8.91742C7.31435 8.91742 7.5011 8.82982 7.62951 8.67737C7.75755 8.52584 7.80918 8.33331 7.77507 8.13613L7.3902 5.89177C7.3738 5.79616 7.40567 5.69868 7.47519 5.63084L9.10581 4.04122Z" fill="#CBCBCB"/>
<g clip-path="url(#clip0)">
<path d="M9.10581 4.04122C9.28902 3.86267 9.35369 3.60063 9.27467 3.35703C9.19546 3.11344 8.98914 2.93955 8.73566 2.90264L6.48199 2.57518C6.386 2.5612 6.30306 2.501 6.2602 2.41396L5.25264 0.37201C5.13951 0.142579 4.90989 0 4.65399 0C4.39828 0 4.16867 0.142579 4.05554 0.37201L3.04779 2.41415C3.00493 2.50119 2.9218 2.56139 2.82582 2.57537L0.57214 2.90283C0.318853 2.93955 0.112347 3.11362 0.0331365 3.35722C-0.0458876 3.60081 0.0187855 3.86286 0.201995 4.04141L1.83261 5.63084C1.90213 5.69868 1.934 5.79634 1.9176 5.89177L1.53292 8.13613C1.49881 8.33369 1.55062 8.52584 1.67848 8.67737C1.87716 8.91351 2.224 8.98545 2.50133 8.8397L4.51682 7.77996C4.60106 7.73579 4.70711 7.73616 4.79117 7.77996L6.80684 8.8397C6.90488 8.89133 7.00944 8.91742 7.11735 8.91742C7.31435 8.91742 7.5011 8.82982 7.62951 8.67737C7.75755 8.52584 7.80918 8.33331 7.77507 8.13613L7.3902 5.89177C7.3738 5.79616 7.40567 5.69868 7.47519 5.63084L9.10581 4.04122Z" fill="#FFC700"/>
</g>
<defs>
<clipPath id="clip0">
<rect width="5" height="9" fill="white"/>
</clipPath>
</defs>
</svg>
