<svg width="11" height="11" viewBox="0 0 11 11" fill="none" xmlns="http://www.w3.org/2000/svg">
<path d="M10.7614 4.77599C10.9779 4.56498 11.0544 4.25529 10.961 3.9674C10.8674 3.67952 10.6235 3.47401 10.324 3.4304L7.66053 3.04339C7.54709 3.02687 7.44907 2.95573 7.39841 2.85286L6.20766 0.439648C6.07396 0.168502 5.8026 0 5.50017 0C5.19797 0 4.92661 0.168502 4.79291 0.439648L3.60194 2.85308C3.55128 2.95595 3.45304 3.02709 3.3396 3.04361L0.676166 3.43062C0.376827 3.47401 0.132774 3.67974 0.0391613 3.96762C-0.0542307 4.25551 0.022201 4.5652 0.238721 4.77621L2.16581 6.65463C2.24797 6.7348 2.28564 6.85022 2.26625 6.963L1.81163 9.61542C1.77132 9.8489 1.83255 10.076 1.98365 10.2551C2.21846 10.5341 2.62837 10.6192 2.95612 10.4469L5.33806 9.19449C5.43762 9.14229 5.56295 9.14273 5.66229 9.19449L8.04445 10.4469C8.16031 10.5079 8.28388 10.5388 8.41141 10.5388C8.64423 10.5388 8.86493 10.4352 9.0167 10.2551C9.16802 10.076 9.22903 9.84846 9.18872 9.61542L8.73388 6.963C8.71449 6.85 8.75216 6.7348 8.83432 6.65463L10.7614 4.77599Z" fill="url(#paint0_linear)"/>
<defs>
<linearGradient id="paint0_linear" x1="3.00012" y1="-0.230591" x2="9.00012" y2="10.7694" gradientUnits="userSpaceOnUse">
<stop/>
<stop offset="1" stop-color="#353F52"/>
</linearGradient>
</defs>
</svg>
