<svg width="40" height="40" viewBox="0 0 40 40" fill="none" xmlns="http://www.w3.org/2000/svg">
<path d="M27.0901 12.9102C25.2912 11.1113 22.7515 9.94727 20.0002 9.94727C17.2489 9.94727 14.7092 11.0584 12.9102 12.9102C11.1113 14.7092 9.94727 17.2489 9.94727 20.0002C9.94727 22.7515 11.1113 25.2912 12.9102 27.0901C14.7092 28.8891 17.2489 30.0531 20.0002 30.0531C22.7515 30.0531 25.2912 28.942 27.0901 27.0901C28.8891 25.2912 30.0531 22.7515 30.0531 20.0002C30.0531 17.2489 28.942 14.7092 27.0901 12.9102ZM25.1854 25.1854C23.8626 26.5081 22.0108 27.3018 20.0002 27.3018C17.9896 27.3018 16.1377 26.5081 14.815 25.1854C13.4922 23.8626 12.6986 22.0108 12.6986 20.0002C12.6986 17.9896 13.4922 16.1377 14.815 14.815C16.1377 13.4922 17.9896 12.6986 20.0002 12.6986C22.0108 12.6986 23.8626 13.4922 25.1854 14.815C26.5081 16.1377 27.3018 17.9896 27.3018 20.0002C27.3018 22.0108 26.5081 23.8626 25.1854 25.1854Z" fill="#353F52"/>
<path d="M38.6236 18.624H34.5495C33.8087 18.624 33.1738 19.2589 33.1738 19.9997C33.1738 20.7404 33.8087 21.3753 34.5495 21.3753H38.6236C39.3643 21.3753 39.9992 20.7404 39.9992 19.9997C39.9992 19.2589 39.3643 18.624 38.6236 18.624Z" fill="#353F52"/>
<path d="M19.9987 33.1748C19.258 33.1748 18.623 33.8097 18.623 34.5505V38.6246C18.623 39.3653 19.258 40.0002 19.9987 40.0002C20.7394 40.0002 21.3744 39.3653 21.3744 38.6246V34.5505C21.3744 33.8097 20.7394 33.1748 19.9987 33.1748Z" fill="#353F52"/>
<path d="M34.1277 32.2219L31.2176 29.3119C30.7414 28.7828 29.8419 28.7828 29.3128 29.3119C28.7837 29.841 28.7837 30.6875 29.3128 31.2166L32.2229 34.1267C32.752 34.6558 33.5986 34.6558 34.1277 34.1267C34.6568 33.5976 34.6568 32.751 34.1277 32.2219Z" fill="#353F52"/>
<path d="M19.9987 0C19.258 0 18.623 0.63492 18.623 1.37566V5.44973C18.623 6.19047 19.258 6.82539 19.9987 6.82539C20.7394 6.82539 21.3744 6.19047 21.3744 5.44973V1.37566C21.3744 0.63492 20.7394 0 19.9987 0Z" fill="#353F52"/>
<path d="M34.1804 5.87339C33.6513 5.34429 32.8047 5.34429 32.2756 5.87339L29.3656 8.78344C28.8365 9.31254 28.8365 10.1591 29.3656 10.6882C29.8418 11.2173 30.7412 11.2173 31.2703 10.6882L34.1804 7.77815C34.7095 7.24905 34.7095 6.40249 34.1804 5.87339Z" fill="#353F52"/>
<path d="M5.44973 18.624H1.37566C0.63492 18.624 0 19.2589 0 19.9997C0 20.7404 0.58201 21.3753 1.37566 21.3753H5.44973C6.19047 21.3753 6.82539 20.7404 6.82539 19.9997C6.82539 19.2589 6.19047 18.624 5.44973 18.624Z" fill="#353F52"/>
<path d="M10.6355 29.3119C10.1593 28.7828 9.25981 28.7828 8.73071 29.3119L5.82065 32.2219C5.29155 32.751 5.29155 33.5976 5.82065 34.1267C6.34975 34.6558 7.19632 34.6558 7.72542 34.1267L10.6355 31.2166C11.1646 30.6875 11.1646 29.841 10.6355 29.3119Z" fill="#353F52"/>
<path d="M10.6355 8.78344L7.72542 5.87339C7.19632 5.34429 6.34975 5.34429 5.82065 5.87339C5.29155 6.40249 5.29155 7.24905 5.82065 7.77815L8.73071 10.6882C9.25981 11.2173 10.1064 11.2173 10.6355 10.6882C11.1646 10.1591 11.1646 9.31254 10.6355 8.78344Z" fill="#353F52"/>
</svg>
