<svg width="40" height="40" viewBox="0 0 40 40" fill="none" xmlns="http://www.w3.org/2000/svg">
<path d="M18.8226 25.9365V10.4863C18.8226 9.83905 18.298 9.31445 17.6508 9.31445C17.0038 9.31445 16.4789 9.83905 16.4789 10.4863V25.9365C14.4189 26.4601 12.8906 28.3303 12.8906 30.5513C12.8906 33.1765 15.0259 35.3121 17.6508 35.3121C20.2756 35.3121 22.4112 33.1765 22.4112 30.5513C22.4112 28.3303 20.8826 26.4601 18.8226 25.9365ZM17.6508 32.9683C16.3184 32.9683 15.2344 31.884 15.2344 30.5513C15.2344 29.2183 16.3184 28.134 17.6508 28.134C18.9835 28.134 20.0674 29.2183 20.0674 30.5513C20.0674 31.884 18.9835 32.9683 17.6508 32.9683Z" fill="#353F52"/>
<path d="M23.4668 23.1036V5.81665C23.4668 2.60925 20.8578 0 17.6508 0C14.444 0 11.835 2.60925 11.835 5.81665V23.1036C9.54987 24.8898 8.20312 27.6288 8.20312 30.5505C8.20312 35.7611 12.4414 40 17.6508 40C22.8604 40 27.0987 35.7611 27.0987 30.5505C27.0987 27.6288 25.752 24.8898 23.4668 23.1036ZM17.6508 37.6562C13.7335 37.6562 10.5469 34.4687 10.5469 30.5505C10.5469 28.1937 11.7126 25.9946 13.6655 24.668C13.9865 24.4498 14.1788 24.0866 14.1788 23.6984V5.81665C14.1788 3.90167 15.7364 2.34375 17.6508 2.34375C19.5654 2.34375 21.123 3.90167 21.123 5.81665V23.6984C21.123 24.0866 21.3153 24.4498 21.6364 24.668C23.5892 25.9946 24.7549 28.1937 24.7549 30.5505C24.7549 34.4687 21.568 37.6562 17.6508 37.6562Z" fill="#353F52"/>
<path d="M30.6143 18.71H26.9824C26.3351 18.71 25.8105 19.2346 25.8105 19.8818C25.8105 20.5291 26.3351 21.0537 26.9824 21.0537H30.6143C31.2613 21.0537 31.7862 20.5291 31.7862 19.8818C31.7862 19.2346 31.2613 18.71 30.6143 18.71Z" fill="#353F52"/>
<path d="M30.6143 14.0215H26.9824C26.3351 14.0215 25.8105 14.5461 25.8105 15.1934C25.8105 15.8406 26.3351 16.3652 26.9824 16.3652H30.6143C31.2613 16.3652 31.7862 15.8406 31.7862 15.1934C31.7862 14.5461 31.2613 14.0215 30.6143 14.0215Z" fill="#353F52"/>
<path d="M30.6143 9.33301H26.9824C26.3351 9.33301 25.8105 9.8576 25.8105 10.5049C25.8105 11.1522 26.3351 11.6768 26.9824 11.6768H30.6143C31.2613 11.6768 31.7862 11.1522 31.7862 10.5049C31.7862 9.8576 31.2613 9.33301 30.6143 9.33301Z" fill="#353F52"/>
<path d="M26.9824 6.98828H30.6143C31.2613 6.98828 31.7862 6.46368 31.7862 5.81641C31.7862 5.16943 31.2613 4.64453 30.6143 4.64453H26.9824C26.3351 4.64453 25.8105 5.16943 25.8105 5.81641C25.8105 6.46368 26.3351 6.98828 26.9824 6.98828Z" fill="#353F52"/>
</svg>
