<svg width="54" height="54" viewBox="0 0 54 54" fill="none" xmlns="http://www.w3.org/2000/svg">
<g clip-path="url(#clip0)">
<path d="M33.1078 21.984L24.9943 29.6474L21.1004 25.6414C20.6687 25.197 19.9579 25.1868 19.5139 25.6185C19.0695 26.0506 19.0594 26.761 19.4911 27.2054L24.1613 31.9996C24.5951 32.4361 25.2963 32.4511 25.7482 32.033L34.6723 23.6157C34.889 23.4113 35.0156 23.1291 35.024 22.8315C35.0323 22.5339 34.922 22.2451 34.7172 22.0288C34.2828 21.5774 33.5667 21.5576 33.1078 21.984Z" fill="white"/>
<path d="M27.087 10.1904C17.8143 10.1904 10.2744 17.7303 10.2744 27.003C10.2744 36.2762 17.8143 43.816 27.087 43.816C36.3602 43.816 43.9 36.2762 43.9 27.003C43.9 17.7303 36.3602 10.1904 27.087 10.1904ZM27.087 41.5653C19.0522 41.5653 12.5251 35.0269 12.5251 27.003C12.5251 18.9792 19.0522 12.4411 27.087 12.4411C35.1297 12.4411 41.6493 18.9607 41.6493 27.003C41.6493 35.0453 35.1297 41.5653 27.087 41.5653Z" fill="white"/>
<path d="M50.2245 20.8134L50.596 14.14C50.6219 13.692 50.3784 13.2713 49.977 13.0709L44.0351 10.0663L41.0305 4.12435C40.8261 3.72652 40.408 3.4843 39.9614 3.5054L33.2766 3.86587L27.7061 0.185617C27.3306 -0.0618724 26.844 -0.0618724 26.4682 0.185617L20.8977 3.86587L14.2247 3.49441C13.7763 3.46804 13.3561 3.71157 13.1556 4.11336L10.1506 10.0553L4.20906 13.0599C3.81079 13.2639 3.56902 13.6819 3.59012 14.129L3.96113 20.8024L0.28132 26.3729C0.0338308 26.7483 0.0338308 27.2349 0.28132 27.6108L3.95014 33.1923L3.57869 39.8657C3.55275 40.3136 3.79585 40.7343 4.19763 40.9348L10.1396 43.9394L13.1442 49.8813C13.3482 50.2796 13.7662 50.5214 14.2133 50.5003L20.8867 50.1288L26.4572 53.8086C26.8304 54.064 27.3219 54.064 27.6951 53.8086L33.2656 50.1288L39.939 50.5003C40.3869 50.5262 40.8072 50.2827 41.0081 49.8813L44.0127 43.9394L49.9546 40.9348C50.3524 40.7304 50.5947 40.3128 50.5736 39.8657L50.2021 33.1923L53.8819 27.6218C54.1294 27.2464 54.1294 26.7593 53.8819 26.3839L50.2245 20.8134ZM48.1312 32.2696C47.994 32.4709 47.9303 32.7131 47.9514 32.9562L48.3 39.2692L42.6847 42.105C42.4706 42.2122 42.2969 42.3863 42.1897 42.6004L39.3535 48.2157L33.0405 47.8671C32.7987 47.8583 32.56 47.9207 32.3538 48.0469L27.0871 51.5245L21.8208 48.0469C21.6379 47.9234 21.4226 47.8566 21.2019 47.8557H21.1456L14.8322 48.2047L11.9964 42.589C11.8891 42.3749 11.7155 42.2012 11.501 42.094L5.87423 39.2692L6.22327 32.9562C6.23206 32.7144 6.1692 32.4757 6.04303 32.2696L2.56587 27.0028L6.04303 21.7361C6.18063 21.5352 6.24437 21.2926 6.22327 21.0499L5.87423 14.7365L11.49 11.9007C11.7041 11.7934 11.8777 11.6198 11.985 11.4057L14.8208 5.78996L21.1342 6.13899C21.3755 6.14734 21.6142 6.08492 21.8208 5.95876L27.0871 2.4816L32.3538 5.95876C32.5552 6.09635 32.7978 6.16009 33.0405 6.13899L39.3535 5.78996L42.1897 11.4057C42.2969 11.6198 42.4706 11.7934 42.6847 11.9007L48.3 14.7365L47.9514 21.0499C47.9426 21.2912 48.0055 21.5299 48.1312 21.7361L51.6088 27.0028L48.1312 32.2696Z" fill="white"/>
</g>
<defs>
<clipPath id="clip0">
<rect width="54" height="54" fill="white"/>
</clipPath>
</defs>
</svg>
