<svg width="54" height="54" viewBox="0 0 54 54" fill="none" xmlns="http://www.w3.org/2000/svg">
<path d="M50.8359 34.6992C50.6352 34.6992 50.4361 34.7195 50.2408 34.7568L46.9237 28.7236C47.398 28.1596 47.6719 27.437 47.6719 26.6836C47.6719 25.93 47.3979 25.2073 46.9238 24.6435L50.2408 18.6104C50.4361 18.6477 50.6352 18.668 50.8359 18.668C52.5806 18.668 54 17.2486 54 15.5039C54 13.7592 52.5806 12.3398 50.8359 12.3398C49.0913 12.3398 47.6719 13.7592 47.6719 15.5039C47.6719 16.2575 47.9459 16.9802 48.42 17.544L45.103 23.5771C44.9075 23.5398 44.7085 23.5195 44.5078 23.5195C43.1329 23.5195 41.9605 24.4014 41.5252 25.6289H33.1467C32.7113 24.4014 31.5391 23.5195 30.1641 23.5195C29.9634 23.5195 29.7642 23.5398 29.5689 23.5771L26.2518 17.5439C26.7261 16.9799 27 16.2573 27 15.5039C27 14.7622 26.7339 14.0509 26.2735 13.491L29.5337 8.0575C29.7403 8.09947 29.9513 8.12109 30.1641 8.12109C31.9087 8.12109 33.3281 6.7017 33.3281 4.95703C33.3281 3.21237 31.9087 1.79297 30.1641 1.79297C28.4194 1.79297 27 3.21237 27 4.95703C27 5.69869 27.266 6.41007 27.7265 6.9699L24.4663 12.4034C24.2598 12.3615 24.0487 12.3398 23.8359 12.3398C22.461 12.3398 21.2887 13.2217 20.8533 14.4492H12.4748C12.0395 13.2217 10.8672 12.3398 9.49219 12.3398C7.74752 12.3398 6.32812 13.7592 6.32812 15.5039C6.32812 16.2575 6.60213 16.9802 7.07622 17.544L3.75922 23.5772C3.56389 23.5398 3.36477 23.5195 3.16406 23.5195C1.4194 23.5195 0 24.9389 0 26.6836C0 28.4283 1.4194 29.8477 3.16406 29.8477C3.36477 29.8477 3.56389 29.8275 3.75922 29.7901L7.07632 35.8233C6.60203 36.3872 6.32812 37.1098 6.32812 37.8633C6.32812 38.6169 6.60213 39.3395 7.07622 39.9034L3.75922 45.9366C3.56389 45.8992 3.36477 45.8789 3.16406 45.8789C1.4194 45.8789 0 47.2983 0 49.043C0 50.7876 1.4194 52.207 3.16406 52.207C4.90873 52.207 6.32812 50.7876 6.32812 49.043C6.32812 48.2894 6.05412 47.5667 5.58004 47.0029L8.89703 40.9697C9.09236 41.0071 9.29148 41.0273 9.49219 41.0273C10.8671 41.0273 12.0395 40.1455 12.4748 38.918H20.8533C21.2887 40.1455 22.4609 41.0273 23.8359 41.0273C24.0366 41.0273 24.2358 41.0071 24.4311 40.9698L27.7482 47.0031C27.2739 47.5669 27 48.2896 27 49.043C27 50.7876 28.4194 52.207 30.1641 52.207C31.539 52.207 32.7113 51.3252 33.1467 50.0977H41.5252C41.9605 51.3252 43.1328 52.207 44.5078 52.207C46.2525 52.207 47.6719 50.7876 47.6719 49.043C47.6719 48.2894 47.3979 47.5667 46.9238 47.0029L50.2408 40.9698C50.4362 41.0071 50.6352 41.0273 50.8359 41.0273C52.5806 41.0273 54 39.6079 54 37.8633C54 36.1186 52.5806 34.6992 50.8359 34.6992ZM50.8359 14.4492C51.4175 14.4492 51.8906 14.9224 51.8906 15.5039C51.8906 16.0855 51.4175 16.5586 50.8359 16.5586C50.6445 16.5586 50.457 16.5068 50.2931 16.4082C49.9726 16.216 49.7812 15.878 49.7812 15.5039C49.7812 14.9224 50.2544 14.4492 50.8359 14.4492ZM30.1641 3.90234C30.7456 3.90234 31.2188 4.37548 31.2188 4.95703C31.2188 5.53859 30.7456 6.01172 30.1641 6.01172C29.9726 6.01172 29.7853 5.95993 29.6214 5.86143C29.6109 5.85056 29.1094 5.58352 29.1094 4.95703C29.1094 4.37548 29.5825 3.90234 30.1641 3.90234ZM3.16406 50.0977C2.58251 50.0977 2.10938 49.6245 2.10938 49.043C2.10938 48.4614 2.58251 47.9883 3.16406 47.9883C3.73096 47.9883 4.21875 48.4422 4.21875 49.043C4.21875 49.6245 3.74562 50.0977 3.16406 50.0977ZM44.5078 25.6289C45.0748 25.6289 45.5625 26.0828 45.5625 26.6836C45.5625 27.2909 45.0682 27.7383 44.5078 27.7383C43.9263 27.7383 43.4531 27.2651 43.4531 26.6836C43.4531 26.102 43.9263 25.6289 44.5078 25.6289ZM30.1641 25.6289C30.7456 25.6289 31.2188 26.102 31.2188 26.6836C31.2188 27.2651 30.7456 27.7383 30.1641 27.7383C29.5971 27.7383 29.1094 27.2843 29.1094 26.6836C29.1094 26.0854 29.595 25.6289 30.1641 25.6289ZM24.3786 14.5995C24.3891 14.6104 24.8906 14.8775 24.8906 15.5039C24.8906 16.1123 24.3952 16.5586 23.8359 16.5586C23.2544 16.5586 22.7812 16.0855 22.7812 15.5039C22.7812 14.6834 23.6806 14.1802 24.3786 14.5995ZM9.49219 14.4492C10.0737 14.4492 10.5469 14.9224 10.5469 15.5039C10.5469 16.0855 10.0737 16.5586 9.49219 16.5586C8.92529 16.5586 8.4375 16.1047 8.4375 15.5039C8.4375 14.9224 8.91063 14.4492 9.49219 14.4492ZM3.16406 27.7383C2.58251 27.7383 2.10938 27.2651 2.10938 26.6836C2.10938 26.102 2.58251 25.6289 3.16406 25.6289C3.73096 25.6289 4.21875 26.0828 4.21875 26.6836C4.21875 27.2981 3.71809 27.7383 3.16406 27.7383ZM9.49219 38.918C8.92529 38.918 8.4375 38.464 8.4375 37.8633C8.4375 37.2646 8.9235 36.8086 9.49219 36.8086C10.0737 36.8086 10.5469 37.2817 10.5469 37.8633C10.5469 38.4448 10.0737 38.918 9.49219 38.918ZM20.8533 36.8086H12.4748C12.0395 35.581 10.8672 34.6992 9.49219 34.6992C9.29148 34.6992 9.09236 34.7195 8.89703 34.7568L5.57993 28.7236C6.05422 28.1596 6.32812 27.4371 6.32812 26.6836C6.32812 25.93 6.05412 25.2073 5.58004 24.6435L8.89703 18.6103C9.09236 18.6477 9.29148 18.668 9.49219 18.668C10.8671 18.668 12.0395 17.7861 12.4748 16.5586H20.8533C21.2887 17.7861 22.4609 18.668 23.8359 18.668C24.0366 18.668 24.2358 18.6477 24.4311 18.6104L27.7482 24.6437C27.2739 25.2076 27 25.9302 27 26.6836C27 27.4372 27.274 28.1598 27.7481 28.7237L24.4311 34.7568C24.2358 34.7195 24.0366 34.6992 23.8359 34.6992C22.461 34.6992 21.2887 35.581 20.8533 36.8086ZM24.3788 38.7676C24.3785 38.7678 24.3782 38.768 24.3778 38.7682C24.2148 38.8662 24.0274 38.918 23.8359 38.918C23.2544 38.918 22.7812 38.4448 22.7812 37.8633C22.7812 37.2817 23.2544 36.8086 23.8359 36.8086C24.0274 36.8086 24.2148 36.8604 24.3788 36.959C24.6993 37.1512 24.8906 37.4892 24.8906 37.8633C24.8906 38.2374 24.6993 38.5754 24.3788 38.7676ZM30.1641 50.0977C29.5825 50.0977 29.1094 49.6245 29.1094 49.043C29.1094 48.4448 29.595 47.9883 30.1641 47.9883C30.7456 47.9883 31.2188 48.4614 31.2188 49.043C31.2188 49.6245 30.7456 50.0977 30.1641 50.0977ZM44.5078 50.0977C43.9263 50.0977 43.4531 49.6245 43.4531 49.043C43.4531 48.4614 43.9263 47.9883 44.5078 47.9883C45.0748 47.9883 45.5625 48.4422 45.5625 49.043C45.5625 49.6245 45.0894 50.0977 44.5078 50.0977ZM48.4201 39.9033L45.103 45.9365C44.9075 45.8992 44.7085 45.8789 44.5078 45.8789C43.1329 45.8789 41.9605 46.7607 41.5252 47.9883H33.1467C32.7113 46.7607 31.5391 45.8789 30.1641 45.8789C29.9634 45.8789 29.7642 45.8992 29.5689 45.9365L26.2518 39.9033C26.7261 39.3393 27 38.6166 27 37.8633C27 37.1097 26.726 36.387 26.2519 35.8232L29.5689 29.7901C29.7642 29.8274 29.9634 29.8477 30.1641 29.8477C31.539 29.8477 32.7113 28.9658 33.1467 27.7383H41.5252C41.9605 28.9658 43.1328 29.8477 44.5078 29.8477C44.7085 29.8477 44.9076 29.8275 45.103 29.7901L48.4201 35.8233C47.9458 36.3872 47.6719 37.1099 47.6719 37.8633C47.6719 38.6166 47.9458 39.3393 48.4201 39.9033ZM50.8359 38.918C50.274 38.918 49.7812 38.4688 49.7812 37.8633C49.7812 37.2651 50.2668 36.8086 50.8359 36.8086C51.4175 36.8086 51.8906 37.2817 51.8906 37.8633C51.8906 38.4448 51.4175 38.918 50.8359 38.918Z" fill="white"/>
</svg>
