<svg width="58" height="54" viewBox="0 0 58 54" fill="none" xmlns="http://www.w3.org/2000/svg">
<path d="M46.955 21.3563H43.3035L44.4037 8.7244C44.4057 8.70152 44.4061 8.67898 44.4062 8.65643C44.4062 8.65451 44.4064 8.65269 44.4064 8.65077C44.4064 8.65043 44.4064 8.6502 44.4064 8.64986C44.4064 8.30605 44.199 8.00302 43.8942 7.87128C43.8916 7.87015 43.8891 7.86879 43.8865 7.86765C43.8675 7.85972 43.8479 7.85293 43.8282 7.84636C43.8209 7.84398 43.8139 7.84103 43.8065 7.83877C43.7904 7.83389 43.7739 7.83004 43.7574 7.82608C43.7459 7.82336 43.7348 7.82007 43.7231 7.81781C43.7087 7.81498 43.6938 7.81316 43.679 7.81101C43.6652 7.80897 43.6516 7.80659 43.6377 7.80535C43.6353 7.80512 43.6332 7.80467 43.6308 7.80444C43.6158 7.80308 43.6011 7.80331 43.5863 7.80274C43.5763 7.8024 43.5666 7.80127 43.5566 7.80127H43.5459C43.545 7.80127 43.5441 7.80127 43.5433 7.80127H26.1692C25.7002 7.80127 25.3196 8.1819 25.3196 8.65088C25.3196 9.11874 25.7002 9.5005 26.1692 9.5005H42.6305L40.9397 28.9141C40.9394 28.9156 40.9394 28.9171 40.9392 28.9186L40.5126 33.817H10.9904L11.4842 28.7195H17.1053C17.5746 28.7195 17.9549 28.3391 17.9549 27.8699C17.9549 27.4007 17.5746 27.0203 17.1053 27.0203H11.6489L12.6915 16.2591H21.6379C22.1073 16.2591 22.4875 15.8787 22.4875 15.4095C22.4875 14.9403 22.1073 14.5599 21.6379 14.5599H12.8562L13.3465 9.5005H22.7708C23.2386 9.5005 23.6204 9.11874 23.6204 8.65088C23.6204 8.1819 23.2386 7.80127 22.7708 7.80127H12.5754C12.5749 7.80127 12.5746 7.80138 12.5742 7.80138C12.1751 7.80127 11.8289 8.08221 11.7452 8.47167C11.7446 8.4745 11.7436 8.47722 11.743 8.48005C11.7387 8.50124 11.7359 8.52287 11.733 8.54462C11.7322 8.55153 11.7308 8.55811 11.7301 8.56502C11.73 8.56637 11.7296 8.56762 11.7295 8.56898L11.1491 14.5599H0.849613C0.380287 14.5599 0 14.9403 0 15.4095C0 15.8787 0.380287 16.2591 0.849613 16.2591H10.9844L9.94172 27.0203H6.91041C6.44108 27.0203 6.0608 27.4007 6.0608 27.8699C6.0608 28.3391 6.44108 28.7195 6.91041 28.7195H9.77712L9.20935 34.5786C9.20924 34.5795 9.20924 34.5804 9.20912 34.5812L8.3313 43.6413C8.33119 43.6424 8.33108 43.6435 8.33096 43.6444L8.33062 43.6477C8.32949 43.6595 8.3296 43.671 8.32892 43.6828C8.32813 43.6984 8.32654 43.7137 8.32654 43.7296C8.32654 43.7303 8.32666 43.7309 8.32666 43.7317C8.32666 43.7536 8.32824 43.7751 8.32983 43.7966C8.33051 43.8036 8.33028 43.8106 8.33108 43.8174C8.33334 43.8394 8.33708 43.861 8.34104 43.8825C8.34218 43.8889 8.34274 43.8953 8.34399 43.9015C8.34727 43.9179 8.35192 43.9336 8.35622 43.9496C8.35917 43.9608 8.36155 43.9722 8.36495 43.9832C8.36597 43.9863 8.36733 43.9892 8.36823 43.9924C8.40935 44.1188 8.47913 44.2323 8.57021 44.325C8.57191 44.3267 8.57327 44.3286 8.57497 44.3302C8.58403 44.3393 8.59389 44.3474 8.6034 44.356C8.66197 44.4097 8.72813 44.4553 8.80052 44.4909C8.81558 44.4984 8.83042 44.5062 8.84583 44.5127C8.85047 44.5147 8.85546 44.5161 8.86021 44.5179C8.88151 44.5264 8.90292 44.5346 8.92501 44.5415C8.92705 44.542 8.92898 44.5424 8.93102 44.5431C8.95616 44.5505 8.98154 44.5571 9.00748 44.5624C9.01088 44.5631 9.01439 44.5633 9.01768 44.564C9.04237 44.5687 9.06718 44.5726 9.09244 44.5751C9.09301 44.5751 9.09346 44.5752 9.09403 44.5753C9.1219 44.5781 9.14954 44.5794 9.17695 44.5794C9.17729 44.5794 9.17774 44.5793 9.1782 44.5793H12.9604C13.3781 47.7459 16.0929 50.1984 19.3718 50.1984C22.6506 50.1984 25.3654 47.7459 25.783 44.5793H39.4107C39.8285 47.7459 42.5432 50.1984 45.822 50.1984C49.1007 50.1984 51.8157 47.7459 52.2335 44.5793H56.0167C56.0172 44.5793 56.0179 44.5794 56.0185 44.5794C56.0468 44.5794 56.0747 44.5777 56.1023 44.575C56.1073 44.5746 56.112 44.5735 56.117 44.573C56.1391 44.5704 56.1611 44.5673 56.1826 44.563C56.1919 44.5612 56.2009 44.5587 56.21 44.5565C56.2267 44.5527 56.2435 44.5486 56.2598 44.5437C56.2709 44.5405 56.2816 44.5366 56.2925 44.5329C56.3064 44.5281 56.3204 44.5231 56.3341 44.5176C56.3459 44.5129 56.3571 44.5078 56.3685 44.5027C56.381 44.497 56.3934 44.4911 56.4056 44.4848C56.4171 44.4789 56.4282 44.4728 56.4393 44.4665C56.451 44.4597 56.4625 44.4527 56.474 44.4454C56.4846 44.4386 56.4953 44.4317 56.5055 44.4244C56.517 44.4164 56.528 44.4079 56.5392 44.3993C56.5485 44.3919 56.5579 44.3847 56.567 44.377C56.5787 44.3671 56.5896 44.3568 56.6007 44.3463C56.6084 44.3389 56.6165 44.3317 56.624 44.324C56.6358 44.312 56.647 44.2993 56.6582 44.2865C56.6642 44.2796 56.6704 44.2729 56.6762 44.2659C56.6887 44.2505 56.7 44.2346 56.7113 44.2186C56.7152 44.2131 56.7195 44.2079 56.7232 44.2022C56.737 44.1815 56.7501 44.1602 56.7621 44.1382C56.763 44.1368 56.7639 44.1356 56.7644 44.1341C56.7772 44.1105 56.789 44.0864 56.7996 44.0615C56.8025 44.0544 56.8048 44.047 56.8076 44.0399C56.8145 44.0223 56.8213 44.0047 56.8271 43.9865C56.8308 43.9747 56.8335 43.9626 56.8368 43.9507C56.8406 43.9365 56.8445 43.9225 56.8477 43.9081C56.8505 43.8953 56.8523 43.8822 56.8545 43.8691C56.8564 43.8577 56.8589 43.8465 56.8604 43.8348C56.8964 43.5462 57.5617 38.2085 57.8589 34.757C57.8592 34.7537 57.8593 34.7503 57.8596 34.747C57.9452 33.7521 58 32.9142 58 32.4013C58 26.3112 53.0453 21.3563 46.955 21.3563ZM43.1555 23.0558H46.6313L46.1873 28.153H42.7115L43.1555 23.0558ZM19.3721 48.4991C16.742 48.4991 14.6024 46.3594 14.6024 43.7295C14.6024 41.0995 16.7421 38.9599 19.3721 38.9599C22.002 38.9599 24.1417 41.0995 24.1417 43.7295C24.1417 46.3594 22.002 48.4991 19.3721 48.4991ZM45.822 48.4991C43.192 48.4991 41.0525 46.3594 41.0525 43.7295C41.0525 41.0995 43.1922 38.9599 45.822 38.9599C48.4521 38.9599 50.5917 41.0995 50.5917 43.7295C50.5917 46.3594 48.4521 48.4991 45.822 48.4991ZM55.2659 42.8795H52.2337C51.8162 39.7127 49.1013 37.2601 45.8222 37.2601C42.5434 37.2601 39.8285 39.7128 39.4109 42.8795H25.7834C25.3658 39.7127 22.651 37.2601 19.3721 37.2601C16.0931 37.2601 13.3781 39.7128 12.9606 42.8795H10.1122L10.8258 35.5158H41.2912V35.5162C41.2916 35.5162 41.292 35.5162 41.2924 35.5162C41.3209 35.5162 41.3491 35.5146 41.3769 35.5118C41.3821 35.5113 41.3872 35.5102 41.3925 35.5095C41.4147 35.5069 41.4367 35.5037 41.4585 35.4994C41.4679 35.4975 41.4771 35.4949 41.4864 35.4926C41.5034 35.4886 41.5203 35.4846 41.5369 35.4796C41.5482 35.4762 41.559 35.4721 41.57 35.4683C41.5842 35.4633 41.5985 35.4584 41.6123 35.4528C41.6242 35.4479 41.6357 35.4425 41.6472 35.437C41.6598 35.4312 41.6724 35.4255 41.6845 35.4191C41.696 35.413 41.7074 35.4064 41.7188 35.3999C41.7305 35.3931 41.742 35.3862 41.7534 35.3789C41.7644 35.3718 41.7748 35.3643 41.7853 35.3568C41.7965 35.3489 41.8074 35.3407 41.8183 35.3322C41.828 35.3244 41.8376 35.3164 41.8472 35.3081C41.8579 35.2988 41.8685 35.2893 41.8787 35.2794C41.8873 35.2712 41.8959 35.2627 41.9043 35.254C41.9145 35.2433 41.9243 35.2323 41.9341 35.2211C41.9416 35.2123 41.9491 35.2034 41.9564 35.1944C41.9658 35.1825 41.9747 35.1702 41.9836 35.1579C41.9902 35.1486 41.9967 35.1393 42.003 35.1298C42.0113 35.117 42.0192 35.1039 42.0268 35.0905C42.0326 35.0805 42.0385 35.0706 42.0437 35.0604C42.0508 35.047 42.057 35.0334 42.0634 35.0197C42.0684 35.0087 42.0735 34.9979 42.078 34.9866C42.0836 34.9732 42.0882 34.9595 42.0931 34.9458C42.0973 34.9337 42.1017 34.9216 42.1054 34.9091C42.1092 34.896 42.1122 34.8825 42.1156 34.8691C42.1189 34.8557 42.1226 34.8423 42.1252 34.8286C42.1278 34.8152 42.1293 34.8016 42.1314 34.788C42.1334 34.774 42.1358 34.7602 42.1372 34.7459C42.1374 34.7438 42.1378 34.7419 42.138 34.7399L42.5638 29.8518H46.9548C49.5579 29.8518 50.732 31.2005 51.9748 32.6285C53.0003 33.8068 54.1453 35.1214 56.0914 35.4421C55.8442 38.0555 55.4447 41.4105 55.2659 42.8795ZM56.2367 33.7395C54.9741 33.4821 54.1974 32.5946 53.2563 31.5134C52.0794 30.1614 50.6427 28.5114 47.8885 28.204L48.328 23.1575C52.8325 23.8237 56.3008 27.7147 56.3008 32.4015C56.3008 32.72 56.277 33.1826 56.2367 33.7395Z" fill="white"/>
<path d="M19.3721 40.6143C17.6544 40.6143 16.2568 42.0117 16.2568 43.7295C16.2568 45.4473 17.6544 46.8448 19.3721 46.8448C21.0898 46.8448 22.4873 45.4473 22.4873 43.7295C22.4873 42.0118 21.0898 40.6143 19.3721 40.6143ZM19.3721 45.1455C18.5912 45.1455 17.9561 44.5104 17.9561 43.7295C17.9561 42.9487 18.5912 42.3135 19.3721 42.3135C20.1529 42.3135 20.7881 42.9487 20.7881 43.7295C20.7881 44.5104 20.1528 45.1455 19.3721 45.1455Z" fill="white"/>
<path d="M45.8218 40.6143C44.1041 40.6143 42.7065 42.0117 42.7065 43.7295C42.7065 45.4473 44.1041 46.8448 45.8218 46.8448C47.5395 46.8448 48.937 45.4473 48.937 43.7295C48.937 42.0118 47.5395 40.6143 45.8218 40.6143ZM45.8218 45.1455C45.0409 45.1455 44.4058 44.5104 44.4058 43.7295C44.4058 42.9487 45.0409 42.3135 45.8218 42.3135C46.6026 42.3135 47.2378 42.9487 47.2378 43.7295C47.2378 44.5104 46.6026 45.1455 45.8218 45.1455Z" fill="white"/>
<path d="M8.04275 21.3564H3.88916C3.41984 21.3564 3.03955 21.7368 3.03955 22.2061C3.03955 22.6753 3.41984 23.0557 3.88916 23.0557H8.04275C8.51208 23.0557 8.89236 22.6753 8.89236 22.2061C8.89236 21.7368 8.51208 21.3564 8.04275 21.3564Z" fill="white"/>
</svg>
