<svg width="24" height="24" viewBox="0 0 24 24" fill="none" xmlns="http://www.w3.org/2000/svg">
<g clip-path="url(#clip0)">
<path d="M11.8285 11.5609C13.4167 11.5609 14.7919 10.9913 15.9158 9.86735C17.0393 8.74364 17.6091 7.3687 17.6091 5.78026C17.6091 4.19238 17.0395 2.81726 15.9156 1.69317C14.7917 0.56964 13.4166 0 11.8285 0C10.24 0 8.86511 0.56964 7.74139 1.69336C6.61768 2.81707 6.04785 4.19219 6.04785 5.78026C6.04785 7.3687 6.61768 8.74382 7.74139 9.86754C8.86548 10.9911 10.2406 11.5609 11.8285 11.5609ZM8.73602 2.6878C9.59827 1.82556 10.6097 1.40643 11.8285 1.40643C13.0471 1.40643 14.0587 1.82556 14.9211 2.6878C15.7834 3.55023 16.2027 4.56188 16.2027 5.78026C16.2027 6.99901 15.7834 8.01048 14.9211 8.87291C14.0587 9.73533 13.0471 10.1545 11.8285 10.1545C10.6101 10.1545 9.59863 9.73515 8.73602 8.87291C7.8736 8.01067 7.45428 6.99901 7.45428 5.78026C7.45428 4.56188 7.8736 3.55023 8.73602 2.6878Z" fill="black"/>
<path d="M21.9435 18.4551C21.9111 17.9875 21.8456 17.4773 21.7491 16.9386C21.6517 16.3959 21.5262 15.8829 21.3761 15.4139C21.2208 14.9293 21.0101 14.4506 20.7491 13.9919C20.4787 13.5159 20.1608 13.1013 19.8041 12.7602C19.4312 12.4033 18.9745 12.1164 18.4464 11.9071C17.9202 11.6989 17.337 11.5934 16.7131 11.5934C16.4681 11.5934 16.2312 11.694 15.7736 11.9919C15.492 12.1755 15.1626 12.3879 14.7949 12.6229C14.4805 12.8232 14.0546 13.0109 13.5286 13.1808C13.0153 13.3469 12.4942 13.4311 11.9797 13.4311C11.4655 13.4311 10.9444 13.3469 10.4308 13.1808C9.90527 13.011 9.47919 12.8234 9.16534 12.623C8.80115 12.3903 8.47156 12.1779 8.18573 11.9917C7.72852 11.6938 7.49158 11.5933 7.24658 11.5933C6.62256 11.5933 6.03955 11.6989 5.51349 11.9073C4.98578 12.1162 4.52893 12.4031 4.15558 12.7604C3.79889 13.1017 3.48102 13.516 3.21075 13.9919C2.9502 14.4506 2.73926 14.9291 2.58398 15.4141C2.43402 15.883 2.30859 16.3959 2.21118 16.9386C2.1145 17.4766 2.04913 17.9869 2.01672 18.4557C1.98486 18.914 1.96875 19.391 1.96875 19.8729C1.96875 21.1257 2.367 22.1399 3.15234 22.8879C3.92798 23.626 4.9541 24.0003 6.20233 24.0003H17.7585C19.0063 24.0003 20.0325 23.626 20.8083 22.8879C21.5938 22.1405 21.9921 21.1259 21.9921 19.8727C21.9919 19.3891 21.9756 18.9122 21.9435 18.4551ZM19.8386 21.8689C19.326 22.3567 18.6456 22.5938 17.7583 22.5938H6.20233C5.31482 22.5938 4.6344 22.3567 4.12207 21.8691C3.61945 21.3907 3.37518 20.7375 3.37518 19.8729C3.37518 19.4232 3.39001 18.9792 3.41968 18.5529C3.44861 18.1347 3.50775 17.6753 3.59546 17.1871C3.68207 16.705 3.7923 16.2526 3.9234 15.8429C4.04919 15.4502 4.22076 15.0613 4.43353 14.6866C4.6366 14.3296 4.87024 14.0232 5.12805 13.7764C5.3692 13.5455 5.67316 13.3566 6.03131 13.2148C6.36255 13.0837 6.7348 13.012 7.13892 13.0012C7.18817 13.0273 7.27588 13.0773 7.41797 13.17C7.70709 13.3584 8.04034 13.5734 8.40875 13.8086C8.82404 14.0734 9.35907 14.3126 9.99829 14.5189C10.6518 14.7302 11.3183 14.8375 11.9799 14.8375C12.6414 14.8375 13.3081 14.7302 13.9612 14.5191C14.601 14.3124 15.1359 14.0734 15.5517 13.8083C15.9287 13.5673 16.2526 13.3586 16.5417 13.17C16.6838 13.0775 16.7715 13.0273 16.8208 13.0012C17.2251 13.012 17.5974 13.0837 17.9288 13.2148C18.2867 13.3566 18.5907 13.5457 18.8318 13.7764C19.0897 14.0231 19.3233 14.3294 19.5264 14.6868C19.7393 15.0613 19.9111 15.4504 20.0367 15.8428C20.168 16.2529 20.2784 16.7052 20.3648 17.1869C20.4523 17.676 20.5117 18.1356 20.5406 18.5531V18.5535C20.5704 18.9781 20.5854 19.4219 20.5856 19.8729C20.5854 20.7377 20.3412 21.3907 19.8386 21.8689Z" fill="black"/>
</g>
<defs>
<clipPath id="clip0">
<rect width="24" height="24" fill="white"/>
</clipPath>
</defs>
</svg>
